# MagicaVoxel @ Ephtracy

# group
o phone

# material
mtllib Sunkent City - Player House-0-phone.mtl
usemtl palette

# normals
vn -1 0 0
vn 1 0 0
vn 0 0 1
vn 0 0 -1
vn 0 -1 0
vn 0 1 0

# texcoords
vt 0.0527344 0.5
vt 0.0644531 0.5
vt 0.958984 0.5

# verts
v 14.5 3.9 0.1
v 14.5 3.9 -0.1
v 14.5 4.7 0.1
v 14.5 4.7 -0.1
v 14.6 3.7 0
v 14.6 3.7 -0.1
v 14.6 3.9 0
v 14.6 3.9 -0.1
v 14.7 3.7 0.1
v 14.7 3.7 0
v 14.7 3.8 0.8
v 14.7 3.8 0.1
v 14.7 3.8 0
v 14.7 3.8 -0.1
v 14.7 3.8 -0.2
v 14.7 3.9 0.7
v 14.7 3.9 0.6
v 14.7 3.9 0.5
v 14.7 3.9 0.4
v 14.7 3.9 0.3
v 14.7 3.9 0.2
v 14.7 3.9 0.1
v 14.7 3.9 0
v 14.7 4 0.7
v 14.7 4 0.6
v 14.7 4 0.5
v 14.7 4 0.4
v 14.7 4 0.3
v 14.7 4 0.2
v 14.7 4.1 0.7
v 14.7 4.1 0.6
v 14.7 4.1 0.5
v 14.7 4.1 0.4
v 14.7 4.1 0.3
v 14.7 4.1 0.2
v 14.7 4.2 0.7
v 14.7 4.2 0.6
v 14.7 4.2 0.5
v 14.7 4.2 0.4
v 14.7 4.2 0.3
v 14.7 4.2 0.2
v 14.7 4.3 0.7
v 14.7 4.3 0.6
v 14.7 4.3 0.5
v 14.7 4.3 0.4
v 14.7 4.3 0.3
v 14.7 4.3 0.2
v 14.7 4.4 0.7
v 14.7 4.4 0.6
v 14.7 4.4 0.5
v 14.7 4.4 0.4
v 14.7 4.4 0.3
v 14.7 4.4 0.2
v 14.7 4.5 0.7
v 14.7 4.5 0.2
v 14.7 4.7 0.7
v 14.7 4.7 0.2
v 14.7 4.7 0.1
v 14.7 4.7 -0.1
v 14.7 4.8 0.8
v 14.7 4.8 -0.2
v 14.8 3.7 0
v 14.8 3.7 -0.1
v 14.8 3.8 0
v 14.8 3.8 -0.1
v 14.9 3.7 0.1
v 14.9 3.7 0
v 14.9 3.8 0.8
v 14.9 3.8 0.1
v 14.9 3.8 0
v 14.9 3.8 -0.2
v 14.9 4.8 0.8
v 14.9 4.8 -0.2
v 14.7 3.8 0.8
v 14.7 4.8 0.8
v 14.9 3.8 0.8
v 14.9 4.8 0.8
v 14.5 3.9 0.1
v 14.5 4.7 0.1
v 14.7 3.7 0.1
v 14.7 3.8 0.1
v 14.7 3.9 0.1
v 14.7 4.7 0.1
v 14.9 3.7 0.1
v 14.9 3.8 0.1
v 14.6 3.7 0
v 14.6 3.9 0
v 14.7 3.7 0
v 14.7 3.8 0
v 14.7 3.9 0
v 14.8 3.7 0
v 14.8 3.8 0
v 14.9 3.7 0
v 14.9 3.8 0
v 14.5 3.9 -0.1
v 14.5 4.7 -0.1
v 14.6 3.7 -0.1
v 14.6 3.9 -0.1
v 14.7 3.8 -0.1
v 14.7 4.7 -0.1
v 14.8 3.7 -0.1
v 14.8 3.8 -0.1
v 14.7 3.8 -0.2
v 14.7 4.8 -0.2
v 14.9 3.8 -0.2
v 14.9 4.8 -0.2
v 14.7 3.7 0.1
v 14.9 3.7 0.1
v 14.6 3.7 0
v 14.7 3.7 0
v 14.8 3.7 0
v 14.9 3.7 0
v 14.6 3.7 -0.1
v 14.8 3.7 -0.1
v 14.7 3.8 0.8
v 14.9 3.8 0.8
v 14.7 3.8 0.1
v 14.9 3.8 0.1
v 14.8 3.8 0
v 14.9 3.8 0
v 14.7 3.8 -0.1
v 14.8 3.8 -0.1
v 14.7 3.8 -0.2
v 14.9 3.8 -0.2
v 14.5 3.9 0.1
v 14.7 3.9 0.1
v 14.6 3.9 0
v 14.7 3.9 0
v 14.5 3.9 -0.1
v 14.6 3.9 -0.1
v 14.5 4.7 0.1
v 14.7 4.7 0.1
v 14.5 4.7 -0.1
v 14.7 4.7 -0.1
v 14.7 4.8 0.8
v 14.9 4.8 0.8
v 14.7 4.8 -0.2
v 14.9 4.8 -0.2

# faces
f 3/1/1 2/1/1 1/1/1
f 4/1/1 2/1/1 3/1/1
f 7/1/1 6/1/1 5/1/1
f 8/1/1 6/1/1 7/1/1
f 12/1/1 10/1/1 9/1/1
f 13/1/1 10/1/1 12/1/1
f 16/2/1 12/2/1 11/2/1
f 16/2/1 13/2/1 12/2/1
f 17/2/1 13/2/1 16/2/1
f 18/2/1 13/2/1 17/2/1
f 19/2/1 13/2/1 18/2/1
f 20/2/1 13/2/1 19/2/1
f 21/2/1 13/2/1 20/2/1
f 22/2/1 13/2/1 21/2/1
f 23/2/1 13/2/1 22/2/1
f 24/2/1 16/2/1 11/2/1
f 24/3/1 17/3/1 16/3/1
f 25/2/1 18/2/1 17/2/1
f 25/3/1 17/3/1 24/3/1
f 26/3/1 19/3/1 18/3/1
f 26/2/1 18/2/1 25/2/1
f 27/2/1 20/2/1 19/2/1
f 27/3/1 19/3/1 26/3/1
f 28/3/1 21/3/1 20/3/1
f 28/2/1 20/2/1 27/2/1
f 29/2/1 22/2/1 21/2/1
f 29/3/1 21/3/1 28/3/1
f 30/2/1 28/2/1 27/2/1
f 30/2/1 24/2/1 11/2/1
f 30/2/1 29/2/1 28/2/1
f 30/2/1 27/2/1 26/2/1
f 30/2/1 26/2/1 25/2/1
f 30/2/1 25/2/1 24/2/1
f 31/2/1 29/2/1 30/2/1
f 32/2/1 29/2/1 31/2/1
f 33/2/1 29/2/1 32/2/1
f 34/2/1 29/2/1 33/2/1
f 35/2/1 22/2/1 29/2/1
f 35/2/1 29/2/1 34/2/1
f 36/2/1 30/2/1 11/2/1
f 36/3/1 31/3/1 30/3/1
f 37/2/1 32/2/1 31/2/1
f 37/3/1 31/3/1 36/3/1
f 38/3/1 33/3/1 32/3/1
f 38/2/1 32/2/1 37/2/1
f 39/2/1 34/2/1 33/2/1
f 39/3/1 33/3/1 38/3/1
f 40/3/1 35/3/1 34/3/1
f 40/2/1 34/2/1 39/2/1
f 41/2/1 22/2/1 35/2/1
f 41/3/1 35/3/1 40/3/1
f 42/2/1 38/2/1 37/2/1
f 42/2/1 40/2/1 39/2/1
f 42/2/1 41/2/1 40/2/1
f 42/2/1 37/2/1 36/2/1
f 42/2/1 36/2/1 11/2/1
f 42/2/1 39/2/1 38/2/1
f 43/2/1 41/2/1 42/2/1
f 44/2/1 41/2/1 43/2/1
f 45/2/1 41/2/1 44/2/1
f 46/2/1 41/2/1 45/2/1
f 47/2/1 22/2/1 41/2/1
f 47/2/1 41/2/1 46/2/1
f 48/2/1 42/2/1 11/2/1
f 48/3/1 43/3/1 42/3/1
f 49/2/1 44/2/1 43/2/1
f 49/3/1 43/3/1 48/3/1
f 50/3/1 45/3/1 44/3/1
f 50/2/1 44/2/1 49/2/1
f 51/2/1 46/2/1 45/2/1
f 51/3/1 45/3/1 50/3/1
f 52/3/1 47/3/1 46/3/1
f 52/2/1 46/2/1 51/2/1
f 53/2/1 22/2/1 47/2/1
f 53/3/1 47/3/1 52/3/1
f 54/2/1 50/2/1 49/2/1
f 54/2/1 52/2/1 51/2/1
f 54/2/1 53/2/1 52/2/1
f 54/2/1 49/2/1 48/2/1
f 54/2/1 48/2/1 11/2/1
f 54/2/1 51/2/1 50/2/1
f 55/2/1 22/2/1 53/2/1
f 55/2/1 53/2/1 54/2/1
f 56/2/1 54/2/1 11/2/1
f 56/3/1 55/3/1 54/3/1
f 57/2/1 22/2/1 55/2/1
f 57/3/1 55/3/1 56/3/1
f 58/2/1 22/2/1 57/2/1
f 59/2/1 15/2/1 14/2/1
f 60/2/1 58/2/1 57/2/1
f 60/2/1 59/2/1 58/2/1
f 60/2/1 57/2/1 56/2/1
f 60/2/1 56/2/1 11/2/1
f 61/2/1 15/2/1 59/2/1
f 61/2/1 59/2/1 60/2/1
f 62/1/2 63/1/2 64/1/2
f 64/1/2 63/1/2 65/1/2
f 66/1/2 67/1/2 69/1/2
f 69/1/2 67/1/2 70/1/2
f 68/2/2 69/2/2 72/2/2
f 70/2/2 71/2/2 72/2/2
f 69/2/2 70/2/2 72/2/2
f 72/2/2 71/2/2 73/2/2
f 76/2/3 75/2/3 74/2/3
f 77/2/3 75/2/3 76/2/3
f 82/1/3 79/1/3 78/1/3
f 83/1/3 79/1/3 82/1/3
f 84/1/3 81/1/3 80/1/3
f 85/1/3 81/1/3 84/1/3
f 88/1/3 87/1/3 86/1/3
f 89/1/3 87/1/3 88/1/3
f 90/1/3 87/1/3 89/1/3
f 91/1/4 92/1/4 93/1/4
f 93/1/4 92/1/4 94/1/4
f 95/1/4 96/1/4 98/1/4
f 97/1/4 98/1/4 99/1/4
f 98/1/4 96/1/4 100/1/4
f 99/1/4 98/1/4 100/1/4
f 97/1/4 99/1/4 101/1/4
f 101/1/4 99/1/4 102/1/4
f 103/2/4 104/2/4 105/2/4
f 105/2/4 104/2/4 106/2/4
f 110/1/5 108/1/5 107/1/5
f 111/1/5 108/1/5 110/1/5
f 112/1/5 108/1/5 111/1/5
f 113/1/5 110/1/5 109/1/5
f 113/1/5 111/1/5 110/1/5
f 114/1/5 111/1/5 113/1/5
f 117/2/5 116/2/5 115/2/5
f 118/2/5 116/2/5 117/2/5
f 122/2/5 120/2/5 119/2/5
f 123/2/5 122/2/5 121/2/5
f 124/2/5 120/2/5 122/2/5
f 124/2/5 122/2/5 123/2/5
f 127/1/5 126/1/5 125/1/5
f 128/1/5 126/1/5 127/1/5
f 129/1/5 127/1/5 125/1/5
f 130/1/5 127/1/5 129/1/5
f 131/1/6 132/1/6 133/1/6
f 133/1/6 132/1/6 134/1/6
f 135/2/6 136/2/6 137/2/6
f 137/2/6 136/2/6 138/2/6
