# This file was created with Minddesk Qubicle 3.0
# Get Qubicle at www.getqubicle.com

mtllib Model.mtl

vn 0.0 0.0 1.0
vn 0.0 0.0 -1.0
vn -1.0 0.0 0.0
vn 1.0 0.0 0.0
vn 0.0 1.0 0.0
vn 0.0 -1.0 0.0

v 1.00000 20.00000 -10.00000
v 1.00000 17.00000 -10.00000
v -1.00000 17.00000 -10.00000
v -1.00000 20.00000 -10.00000
v -8.00000 3.00000 -10.00000
v -8.00000 1.00000 -10.00000
v -9.00000 1.00000 -10.00000
v -9.00000 3.00000 -10.00000
v -7.00000 5.00000 -10.00000
v -7.00000 3.00000 -10.00000
v -8.00000 5.00000 -10.00000
v -6.00000 7.00000 -10.00000
v -6.00000 5.00000 -10.00000
v -7.00000 7.00000 -10.00000
v -5.00000 9.00000 -10.00000
v -5.00000 7.00000 -10.00000
v -6.00000 9.00000 -10.00000
v -4.00000 11.00000 -10.00000
v -4.00000 9.00000 -10.00000
v -5.00000 11.00000 -10.00000
v -3.00000 13.00000 -10.00000
v -3.00000 11.00000 -10.00000
v -4.00000 13.00000 -10.00000
v -2.00000 15.00000 -10.00000
v -2.00000 13.00000 -10.00000
v -3.00000 15.00000 -10.00000
v -1.00000 15.00000 -10.00000
v -2.00000 17.00000 -10.00000
v -1.00000 22.00000 -10.00000
v -2.00000 20.00000 -10.00000
v -2.00000 22.00000 -10.00000
v 2.00000 17.00000 -10.00000
v 2.00000 15.00000 -10.00000
v 1.00000 15.00000 -10.00000
v 2.00000 22.00000 -10.00000
v 2.00000 20.00000 -10.00000
v 1.00000 22.00000 -10.00000
v 3.00000 15.00000 -10.00000
v 3.00000 13.00000 -10.00000
v 2.00000 13.00000 -10.00000
v 4.00000 13.00000 -10.00000
v 4.00000 11.00000 -10.00000
v 3.00000 11.00000 -10.00000
v 5.00000 11.00000 -10.00000
v 5.00000 9.00000 -10.00000
v 4.00000 9.00000 -10.00000
v 6.00000 9.00000 -10.00000
v 6.00000 7.00000 -10.00000
v 5.00000 7.00000 -10.00000
v 7.00000 7.00000 -10.00000
v 7.00000 5.00000 -10.00000
v 6.00000 5.00000 -10.00000
v 8.00000 5.00000 -10.00000
v 8.00000 3.00000 -10.00000
v 7.00000 3.00000 -10.00000
v 9.00000 3.00000 -10.00000
v 9.00000 1.00000 -10.00000
v 8.00000 1.00000 -10.00000
v -1.00000 22.00000 9.00000
v -1.00000 20.00000 9.00000
v -2.00000 20.00000 9.00000
v -2.00000 22.00000 9.00000
v 2.00000 22.00000 9.00000
v 2.00000 20.00000 9.00000
v 1.00000 20.00000 9.00000
v 1.00000 22.00000 9.00000
v 6.00000 1.00000 -8.00000
v 6.00000 0.00000 -8.00000
v -7.00000 0.00000 -8.00000
v -7.00000 1.00000 -8.00000
v -1.00000 2.00000 5.00000
v -1.00000 1.00000 5.00000
v -7.00000 1.00000 5.00000
v -7.00000 2.00000 5.00000
v 6.00000 2.00000 5.00000
v 6.00000 1.00000 5.00000
v 0.00000 1.00000 5.00000
v 0.00000 2.00000 5.00000
v 1.00000 19.00000 9.00000
v -1.00000 19.00000 9.00000
v -9.00000 0.00000 -10.00000
v -10.00000 0.00000 -10.00000
v -10.00000 1.00000 -10.00000
v 10.00000 1.00000 -10.00000
v 10.00000 0.00000 -10.00000
v 9.00000 0.00000 -10.00000
v -1.00000 20.00000 10.00000
v -1.00000 17.00000 10.00000
v 1.00000 17.00000 10.00000
v 1.00000 20.00000 10.00000
v -2.00000 22.00000 -9.00000
v -2.00000 20.00000 -9.00000
v -1.00000 20.00000 -9.00000
v -1.00000 22.00000 -9.00000
v 1.00000 22.00000 -9.00000
v 1.00000 20.00000 -9.00000
v 2.00000 20.00000 -9.00000
v 2.00000 22.00000 -9.00000
v -9.00000 3.00000 10.00000
v -9.00000 1.00000 10.00000
v -8.00000 1.00000 10.00000
v -8.00000 3.00000 10.00000
v -8.00000 5.00000 10.00000
v -7.00000 3.00000 10.00000
v -7.00000 5.00000 10.00000
v -7.00000 7.00000 10.00000
v -6.00000 5.00000 10.00000
v -6.00000 7.00000 10.00000
v -6.00000 9.00000 10.00000
v -5.00000 7.00000 10.00000
v -5.00000 9.00000 10.00000
v -5.00000 11.00000 10.00000
v -4.00000 9.00000 10.00000
v -4.00000 11.00000 10.00000
v -4.00000 13.00000 10.00000
v -3.00000 11.00000 10.00000
v -3.00000 13.00000 10.00000
v -3.00000 15.00000 10.00000
v -2.00000 13.00000 10.00000
v -2.00000 15.00000 10.00000
v -2.00000 17.00000 10.00000
v -1.00000 15.00000 10.00000
v -2.00000 22.00000 10.00000
v -2.00000 20.00000 10.00000
v -1.00000 22.00000 10.00000
v 1.00000 15.00000 10.00000
v 2.00000 15.00000 10.00000
v 2.00000 17.00000 10.00000
v 1.00000 22.00000 10.00000
v 2.00000 20.00000 10.00000
v 2.00000 22.00000 10.00000
v 2.00000 13.00000 10.00000
v 3.00000 13.00000 10.00000
v 3.00000 15.00000 10.00000
v 3.00000 11.00000 10.00000
v 4.00000 11.00000 10.00000
v 4.00000 13.00000 10.00000
v 4.00000 9.00000 10.00000
v 5.00000 9.00000 10.00000
v 5.00000 11.00000 10.00000
v 5.00000 7.00000 10.00000
v 6.00000 7.00000 10.00000
v 6.00000 9.00000 10.00000
v 6.00000 5.00000 10.00000
v 7.00000 5.00000 10.00000
v 7.00000 7.00000 10.00000
v 7.00000 3.00000 10.00000
v 8.00000 3.00000 10.00000
v 8.00000 5.00000 10.00000
v 8.00000 1.00000 10.00000
v 9.00000 1.00000 10.00000
v 9.00000 3.00000 10.00000
v -7.00000 1.00000 8.00000
v -7.00000 0.00000 8.00000
v 6.00000 0.00000 8.00000
v 6.00000 1.00000 8.00000
v -7.00000 2.00000 8.00000
v -1.00000 1.00000 8.00000
v -1.00000 2.00000 8.00000
v 0.00000 2.00000 8.00000
v 0.00000 1.00000 8.00000
v 6.00000 2.00000 8.00000
v -1.00000 19.00000 -9.00000
v 1.00000 19.00000 -9.00000
v -10.00000 1.00000 10.00000
v -10.00000 0.00000 10.00000
v -9.00000 0.00000 10.00000
v 9.00000 0.00000 10.00000
v 10.00000 0.00000 10.00000
v 10.00000 1.00000 10.00000
v -1.00000 19.00000 -10.00000
v -1.00000 19.00000 10.00000
v 1.00000 19.00000 10.00000
v 1.00000 19.00000 -10.00000

vt 0.00781 0.32813
vt 0.00781 0.01563
vt 0.02344 0.01563
vt 0.02344 0.32813
vt 0.03906 0.32813
vt 0.03906 0.01563
vt 0.04688 0.01563
vt 0.04688 0.32813
vt 0.06250 0.32813
vt 0.06250 0.01563
vt 0.07031 0.01563
vt 0.07031 0.32813
vt 0.08594 0.32813
vt 0.08594 0.01563
vt 0.09375 0.01563
vt 0.09375 0.32813
vt 0.10938 0.32813
vt 0.10938 0.01563
vt 0.11719 0.01563
vt 0.11719 0.32813
vt 0.13281 0.32813
vt 0.13281 0.01563
vt 0.14063 0.01563
vt 0.14063 0.32813
vt 0.15625 0.32813
vt 0.15625 0.01563
vt 0.16406 0.01563
vt 0.16406 0.32813
vt 0.17969 0.32813
vt 0.17969 0.01563
vt 0.18750 0.01563
vt 0.18750 0.32813
vt 0.20313 0.32813
vt 0.20313 0.01563
vt 0.21094 0.01563
vt 0.21094 0.32813
vt 0.22656 0.32813
vt 0.22656 0.01563
vt 0.23438 0.01563
vt 0.23438 0.32813
vt 0.25000 0.32813
vt 0.25000 0.01563
vt 0.25781 0.01563
vt 0.25781 0.32813
vt 0.27344 0.32813
vt 0.27344 0.01563
vt 0.28125 0.01563
vt 0.28125 0.32813
vt 0.29688 0.32813
vt 0.29688 0.01563
vt 0.30469 0.01563
vt 0.30469 0.32813
vt 0.32031 0.32813
vt 0.32031 0.01563
vt 0.32813 0.01563
vt 0.32813 0.32813
vt 0.34375 0.32813
vt 0.34375 0.01563
vt 0.35156 0.01563
vt 0.35156 0.32813
vt 0.36719 0.32813
vt 0.36719 0.01563
vt 0.37500 0.01563
vt 0.37500 0.32813
vt 0.39063 0.32813
vt 0.39063 0.01563
vt 0.39844 0.01563
vt 0.39844 0.32813
vt 0.41406 0.32813
vt 0.41406 0.01563
vt 0.42188 0.01563
vt 0.42188 0.32813
vt 0.43750 0.32813
vt 0.43750 0.01563
vt 0.44531 0.01563
vt 0.44531 0.32813
vt 0.46094 0.32813
vt 0.46094 0.01563
vt 0.46875 0.01563
vt 0.46875 0.32813
vt 0.48438 0.32813
vt 0.48438 0.01563
vt 0.49219 0.01563
vt 0.49219 0.32813
vt 0.50781 0.32813
vt 0.50781 0.01563
vt 0.51563 0.01563
vt 0.51563 0.32813
vt 0.53125 0.32813
vt 0.53125 0.01563
vt 0.53906 0.01563
vt 0.53906 0.32813
vt 0.55469 0.32813
vt 0.55469 0.01563
vt 0.56250 0.01563
vt 0.56250 0.32813
vt 0.57813 0.32813
vt 0.57813 0.01563
vt 0.58594 0.01563
vt 0.58594 0.32813
vt 0.60156 0.32813
vt 0.60156 0.01563
vt 0.60938 0.01563
vt 0.60938 0.32813
vt 0.62500 0.32813
vt 0.62500 0.01563
vt 0.63281 0.01563
vt 0.63281 0.32813
vt 0.64844 0.32813
vt 0.64844 0.01563
vt 0.65625 0.01563
vt 0.65625 0.32813
vt 0.67188 0.32813
vt 0.67188 0.01563
vt 0.67969 0.01563
vt 0.67969 0.32813
vt 0.69531 0.32813
vt 0.69531 0.01563
vt 0.70313 0.01563
vt 0.70313 0.32813
vt 0.71875 0.32813
vt 0.71875 0.01563
vt 0.72656 0.01563
vt 0.72656 0.32813
vt 0.74219 0.32813
vt 0.74219 0.01563
vt 0.75000 0.01563
vt 0.75000 0.32813
vt 0.76563 0.32813
vt 0.76563 0.01563
vt 0.77344 0.01563
vt 0.77344 0.32813
vt 0.78906 0.32813
vt 0.78906 0.01563
vt 0.79688 0.01563
vt 0.79688 0.32813
vt 0.81250 0.32813
vt 0.81250 0.01563
vt 0.82031 0.01563
vt 0.82031 0.32813
vt 0.83594 0.32813
vt 0.83594 0.01563
vt 0.84375 0.01563
vt 0.84375 0.32813
vt 0.85938 0.32813
vt 0.85938 0.01563
vt 0.86719 0.01563
vt 0.86719 0.32813
vt 0.88281 0.29688
vt 0.88281 0.01563
vt 0.89844 0.01563
vt 0.89844 0.29688
vt 0.00781 0.60938
vt 0.00781 0.35938
vt 0.10938 0.35938
vt 0.10938 0.60938
vt 0.12500 0.56250
vt 0.12500 0.35938
vt 0.22656 0.35938
vt 0.22656 0.56250
vt 0.91406 0.06250
vt 0.91406 0.01563
vt 0.96094 0.01563
vt 0.96094 0.06250
vt 0.91406 0.14063
vt 0.91406 0.09375
vt 0.96094 0.09375
vt 0.96094 0.14063
vt 0.97656 0.06250
vt 0.97656 0.01563
vt 0.99219 0.01563
vt 0.99219 0.06250
vt 0.97656 0.14063
vt 0.97656 0.09375
vt 0.99219 0.09375
vt 0.99219 0.14063
vt 0.91406 0.21875
vt 0.91406 0.17188
vt 0.92188 0.17188
vt 0.92188 0.21875
vt 0.24219 0.39063
vt 0.24219 0.35938
vt 0.39844 0.35938
vt 0.39844 0.39063
vt 0.41406 0.39063
vt 0.41406 0.35938
vt 0.57031 0.35938
vt 0.57031 0.39063
vt 0.58594 0.39063
vt 0.58594 0.35938
vt 0.74219 0.35938
vt 0.74219 0.39063
vt 0.75781 0.39063
vt 0.75781 0.35938
vt 0.91406 0.35938
vt 0.91406 0.39063
vt 0.24219 0.45313
vt 0.24219 0.42188
vt 0.39844 0.42188
vt 0.39844 0.45313
vt 0.41406 0.45313
vt 0.41406 0.42188
vt 0.57031 0.42188
vt 0.57031 0.45313
vt 0.58594 0.45313
vt 0.58594 0.42188
vt 0.74219 0.42188
vt 0.74219 0.45313
vt 0.75781 0.45313
vt 0.75781 0.42188
vt 0.91406 0.42188
vt 0.91406 0.45313
vt 0.24219 0.51563
vt 0.24219 0.48438
vt 0.39844 0.48438
vt 0.39844 0.51563
vt 0.41406 0.51563
vt 0.41406 0.48438
vt 0.57031 0.48438
vt 0.57031 0.51563
vt 0.58594 0.51563
vt 0.58594 0.48438
vt 0.74219 0.48438
vt 0.74219 0.51563
vt 0.75781 0.51563
vt 0.75781 0.48438
vt 0.91406 0.48438
vt 0.91406 0.51563
vt 0.00781 0.67188
vt 0.00781 0.64063
vt 0.16406 0.64063
vt 0.16406 0.67188
vt 0.17969 0.67188
vt 0.17969 0.64063
vt 0.33594 0.64063
vt 0.33594 0.67188
vt 0.35156 0.67188
vt 0.35156 0.64063
vt 0.50781 0.64063
vt 0.50781 0.67188
vt 0.52344 0.67188
vt 0.52344 0.64063
vt 0.67969 0.64063
vt 0.67969 0.67188
vt 0.69531 0.67188
vt 0.69531 0.64063
vt 0.85156 0.64063
vt 0.85156 0.67188
vt 0.00781 0.73438
vt 0.00781 0.70313
vt 0.16406 0.70313
vt 0.16406 0.73438
vt 0.17969 0.73438
vt 0.17969 0.70313
vt 0.33594 0.70313
vt 0.33594 0.73438
vt 0.35156 0.73438
vt 0.35156 0.70313
vt 0.50781 0.70313
vt 0.50781 0.73438
vt 0.52344 0.73438
vt 0.52344 0.70313
vt 0.67969 0.70313
vt 0.67969 0.73438
vt 0.69531 0.73438
vt 0.69531 0.70313
vt 0.85156 0.70313
vt 0.85156 0.73438
vt 0.00781 0.79688
vt 0.00781 0.76563
vt 0.16406 0.76563
vt 0.16406 0.79688
vt 0.17969 0.79688
vt 0.17969 0.76563
vt 0.33594 0.76563
vt 0.33594 0.79688
vt 0.35156 0.79688
vt 0.35156 0.76563
vt 0.50781 0.76563
vt 0.50781 0.79688
vt 0.52344 0.79688
vt 0.52344 0.76563
vt 0.67969 0.76563
vt 0.67969 0.79688
vt 0.69531 0.79688
vt 0.69531 0.76563
vt 0.85156 0.76563
vt 0.85156 0.79688
vt 0.00781 0.85938
vt 0.00781 0.82813
vt 0.16406 0.82813
vt 0.16406 0.85938
vt 0.17969 0.85938
vt 0.17969 0.82813
vt 0.33594 0.82813
vt 0.33594 0.85938
vt 0.35156 0.85938
vt 0.35156 0.82813
vt 0.50781 0.82813
vt 0.50781 0.85938
vt 0.52344 0.85938
vt 0.52344 0.82813
vt 0.67969 0.82813
vt 0.67969 0.85938
vt 0.69531 0.85938
vt 0.69531 0.82813
vt 0.85156 0.82813
vt 0.85156 0.85938
vt 0.00781 0.92188
vt 0.00781 0.89063
vt 0.16406 0.89063
vt 0.16406 0.92188
vt 0.17969 0.92188
vt 0.17969 0.89063
vt 0.33594 0.89063
vt 0.33594 0.92188
vt 0.93750 0.20313
vt 0.93750 0.17188
vt 0.94531 0.17188
vt 0.94531 0.20313
vt 0.96094 0.20313
vt 0.96094 0.17188
vt 0.96875 0.17188
vt 0.96875 0.20313
vt 0.98438 0.20313
vt 0.98438 0.17188
vt 0.99219 0.17188
vt 0.99219 0.20313
vt 0.91406 0.28125
vt 0.91406 0.25000
vt 0.92188 0.25000
vt 0.92188 0.28125
vt 0.93750 0.28125
vt 0.93750 0.25000
vt 0.94531 0.25000
vt 0.94531 0.28125
vt 0.96094 0.28125
vt 0.96094 0.25000
vt 0.96875 0.25000
vt 0.96875 0.28125
vt 0.98438 0.28125
vt 0.98438 0.25000
vt 0.99219 0.25000
vt 0.99219 0.28125
vt 0.92969 0.39063
vt 0.92969 0.35938
vt 0.93750 0.35938
vt 0.93750 0.39063
vt 0.95313 0.39063
vt 0.95313 0.35938
vt 0.96094 0.35938
vt 0.96094 0.39063
vt 0.97656 0.39063
vt 0.97656 0.35938
vt 0.98438 0.35938
vt 0.98438 0.39063
vt 0.92969 0.45313
vt 0.92969 0.42188
vt 0.93750 0.42188
vt 0.93750 0.45313
vt 0.95313 0.45313
vt 0.95313 0.42188
vt 0.96094 0.42188
vt 0.96094 0.45313
vt 0.97656 0.45313
vt 0.97656 0.42188
vt 0.98438 0.42188
vt 0.98438 0.45313
vt 0.92969 0.51563
vt 0.92969 0.48438
vt 0.93750 0.48438
vt 0.93750 0.51563
vt 0.95313 0.51563
vt 0.95313 0.48438
vt 0.96094 0.48438
vt 0.96094 0.51563
vt 0.97656 0.51563
vt 0.97656 0.48438
vt 0.98438 0.48438
vt 0.98438 0.51563
vt 0.86719 0.67188
vt 0.86719 0.64063
vt 0.87500 0.64063
vt 0.87500 0.67188
vt 0.89063 0.67188
vt 0.89063 0.64063
vt 0.89844 0.64063
vt 0.89844 0.67188
vt 0.91406 0.67188
vt 0.91406 0.64063
vt 0.92188 0.64063
vt 0.92188 0.67188
vt 0.93750 0.67188
vt 0.93750 0.64063
vt 0.94531 0.64063
vt 0.94531 0.67188
vt 0.96094 0.67188
vt 0.96094 0.64063
vt 0.96875 0.64063
vt 0.96875 0.67188
vt 0.98438 0.67188
vt 0.98438 0.64063
vt 0.99219 0.64063
vt 0.99219 0.67188
vt 0.86719 0.73438
vt 0.86719 0.70313
vt 0.87500 0.70313
vt 0.87500 0.73438
vt 0.89063 0.73438
vt 0.89063 0.70313
vt 0.89844 0.70313
vt 0.89844 0.73438
vt 0.91406 0.73438
vt 0.91406 0.70313
vt 0.92188 0.70313
vt 0.92188 0.73438
vt 0.93750 0.73438
vt 0.93750 0.70313
vt 0.94531 0.70313
vt 0.94531 0.73438
vt 0.96094 0.73438
vt 0.96094 0.70313
vt 0.96875 0.70313
vt 0.96875 0.73438
vt 0.98438 0.73438
vt 0.98438 0.70313
vt 0.99219 0.70313
vt 0.99219 0.73438
vt 0.86719 0.79688
vt 0.86719 0.76563
vt 0.87500 0.76563
vt 0.87500 0.79688
vt 0.89063 0.79688
vt 0.89063 0.76563
vt 0.89844 0.76563
vt 0.89844 0.79688
vt 0.91406 0.79688
vt 0.91406 0.76563
vt 0.92188 0.76563
vt 0.92188 0.79688
vt 0.93750 0.79688
vt 0.93750 0.76563
vt 0.94531 0.76563
vt 0.94531 0.79688
vt 0.96094 0.79688
vt 0.96094 0.76563
vt 0.96875 0.76563
vt 0.96875 0.79688
vt 0.98438 0.79688
vt 0.98438 0.76563
vt 0.99219 0.76563
vt 0.99219 0.79688
vt 0.86719 0.85938
vt 0.86719 0.82813
vt 0.87500 0.82813
vt 0.87500 0.85938
vt 0.89063 0.85938
vt 0.89063 0.82813
vt 0.89844 0.82813
vt 0.89844 0.85938
vt 0.91406 0.85938
vt 0.91406 0.82813
vt 0.92188 0.82813
vt 0.92188 0.85938
vt 0.93750 0.85938
vt 0.93750 0.82813
vt 0.94531 0.82813
vt 0.94531 0.85938
vt 0.96094 0.85938
vt 0.96094 0.82813
vt 0.96875 0.82813
vt 0.96875 0.85938
vt 0.98438 0.85938
vt 0.98438 0.82813
vt 0.99219 0.82813
vt 0.99219 0.85938
vt 0.35156 0.92188
vt 0.35156 0.89063
vt 0.35938 0.89063
vt 0.35938 0.92188
vt 0.37500 0.92188
vt 0.37500 0.89063
vt 0.38281 0.89063
vt 0.38281 0.92188
vt 0.39844 0.92188
vt 0.39844 0.89063
vt 0.40625 0.89063
vt 0.40625 0.92188
vt 0.42188 0.92188
vt 0.42188 0.89063
vt 0.42969 0.89063
vt 0.42969 0.92188
vt 0.44531 0.92188
vt 0.44531 0.89063
vt 0.45313 0.89063
vt 0.45313 0.92188
vt 0.46875 0.92188
vt 0.46875 0.89063
vt 0.47656 0.89063
vt 0.47656 0.92188
vt 0.49219 0.92188
vt 0.49219 0.89063
vt 0.50000 0.89063
vt 0.50000 0.92188
vt 0.51563 0.92188
vt 0.51563 0.89063
vt 0.52344 0.89063
vt 0.52344 0.92188
vt 0.24219 0.56250
vt 0.24219 0.54688
vt 0.39844 0.54688
vt 0.39844 0.56250
vt 0.41406 0.56250
vt 0.41406 0.54688
vt 0.57031 0.54688
vt 0.57031 0.56250
vt 0.58594 0.56250
vt 0.58594 0.54688
vt 0.74219 0.54688
vt 0.74219 0.56250
vt 0.75781 0.56250
vt 0.75781 0.54688
vt 0.91406 0.54688
vt 0.91406 0.56250
vt 0.12500 0.60938
vt 0.12500 0.59375
vt 0.25000 0.59375
vt 0.25000 0.60938
vt 0.26563 0.60938
vt 0.26563 0.59375
vt 0.39063 0.59375
vt 0.39063 0.60938
vt 0.40625 0.60938
vt 0.40625 0.59375
vt 0.50781 0.59375
vt 0.50781 0.60938
vt 0.52344 0.60938
vt 0.52344 0.59375
vt 0.62500 0.59375
vt 0.62500 0.60938
vt 0.92969 0.56250
vt 0.92969 0.54688
vt 0.97656 0.54688
vt 0.97656 0.56250
vt 0.64063 0.60938
vt 0.64063 0.59375
vt 0.68750 0.59375
vt 0.68750 0.60938
vt 0.70313 0.60938
vt 0.70313 0.59375
vt 0.75000 0.59375
vt 0.75000 0.60938
vt 0.76563 0.60938
vt 0.76563 0.59375
vt 0.81250 0.59375
vt 0.81250 0.60938
vt 0.82813 0.60938
vt 0.82813 0.59375
vt 0.85156 0.59375
vt 0.85156 0.60938
vt 0.86719 0.60938
vt 0.86719 0.59375
vt 0.89063 0.59375
vt 0.89063 0.60938
vt 0.90625 0.60938
vt 0.90625 0.59375
vt 0.92969 0.59375
vt 0.92969 0.60938
vt 0.94531 0.60938
vt 0.94531 0.59375
vt 0.96875 0.59375
vt 0.96875 0.60938
vt 0.53906 0.90625
vt 0.53906 0.89063
vt 0.55469 0.89063
vt 0.55469 0.90625
vt 0.57031 0.90625
vt 0.57031 0.89063
vt 0.58594 0.89063
vt 0.58594 0.90625
vt 0.60156 0.90625
vt 0.60156 0.89063
vt 0.61719 0.89063
vt 0.61719 0.90625
vt 0.63281 0.90625
vt 0.63281 0.89063
vt 0.64844 0.89063
vt 0.64844 0.90625
vt 0.98438 0.60938
vt 0.98438 0.59375
vt 0.99219 0.59375
vt 0.99219 0.60938
vt 0.66406 0.90625
vt 0.66406 0.89063
vt 0.67188 0.89063
vt 0.67188 0.90625
vt 0.68750 0.90625
vt 0.68750 0.89063
vt 0.69531 0.89063
vt 0.69531 0.90625
vt 0.71094 0.90625
vt 0.71094 0.89063
vt 0.71875 0.89063
vt 0.71875 0.90625
vt 0.73438 0.90625
vt 0.73438 0.89063
vt 0.74219 0.89063
vt 0.74219 0.90625
vt 0.75781 0.90625
vt 0.75781 0.89063
vt 0.76563 0.89063
vt 0.76563 0.90625
vt 0.78125 0.90625
vt 0.78125 0.89063
vt 0.78906 0.89063
vt 0.78906 0.90625
vt 0.80469 0.90625
vt 0.80469 0.89063
vt 0.81250 0.89063
vt 0.81250 0.90625
vt 0.82813 0.90625
vt 0.82813 0.89063
vt 0.83594 0.89063
vt 0.83594 0.90625
vt 0.85156 0.90625
vt 0.85156 0.89063
vt 0.85938 0.89063
vt 0.85938 0.90625
vt 0.87500 0.90625
vt 0.87500 0.89063
vt 0.88281 0.89063
vt 0.88281 0.90625
vt 0.89844 0.90625
vt 0.89844 0.89063
vt 0.90625 0.89063
vt 0.90625 0.90625
vt 0.92188 0.90625
vt 0.92188 0.89063
vt 0.92969 0.89063
vt 0.92969 0.90625
vt 0.94531 0.90625
vt 0.94531 0.89063
vt 0.95313 0.89063
vt 0.95313 0.90625
vt 0.96875 0.90625
vt 0.96875 0.89063
vt 0.97656 0.89063
vt 0.97656 0.90625
vt 0.00781 0.96875
vt 0.00781 0.95313
vt 0.01563 0.95313
vt 0.01563 0.96875

g 
usemtl Model_Material
f 1/173/2 2/174/2 3/175/2 4/176/2
f 5/405/2 6/406/2 7/407/2 8/408/2
f 9/505/2 10/506/2 5/507/2 11/508/2
f 12/501/2 13/502/2 9/503/2 14/504/2
f 15/489/2 16/490/2 12/491/2 17/492/2
f 18/485/2 19/486/2 15/487/2 20/488/2
f 21/497/2 22/498/2 18/499/2 23/500/2
f 24/493/2 25/494/2 21/495/2 26/496/2
f 3/449/2 27/450/2 24/451/2 28/452/2
f 29/453/2 4/454/2 30/455/2 31/456/2
f 32/461/2 33/462/2 34/463/2 2/464/2
f 35/481/2 36/482/2 1/483/2 37/484/2
f 38/357/2 39/358/2 40/359/2 33/360/2
f 41/353/2 42/354/2 43/355/2 39/356/2
f 44/385/2 45/386/2 46/387/2 42/388/2
f 47/381/2 48/382/2 49/383/2 45/384/2
f 50/393/2 51/394/2 52/395/2 48/396/2
f 53/397/2 54/398/2 55/399/2 51/400/2
f 56/401/2 57/402/2 58/403/2 54/404/2
f 59/389/2 60/390/2 61/391/2 62/392/2
f 63/377/2 64/378/2 65/379/2 66/380/2
f 67/533/2 68/534/2 69/535/2 70/536/2
f 71/545/2 72/546/2 73/547/2 74/548/2
f 75/541/2 76/542/2 77/543/2 78/544/2
f 65/581/2 79/582/2 80/583/2 60/584/2
f 7/629/2 81/630/2 82/631/2 83/632/2
f 84/633/2 85/634/2 86/635/2 57/636/2
f 87/169/1 88/170/1 89/171/1 90/172/1
f 91/425/1 92/426/1 93/427/1 94/428/1
f 95/429/1 96/430/1 97/431/1 98/432/1
f 99/433/1 100/434/1 101/435/1 102/436/1
f 103/421/1 102/422/1 104/423/1 105/424/1
f 106/409/1 105/410/1 107/411/1 108/412/1
f 109/413/1 108/414/1 110/415/1 111/416/1
f 112/417/1 111/418/1 113/419/1 114/420/1
f 115/333/1 114/334/1 116/335/1 117/336/1
f 118/337/1 117/338/1 119/339/1 120/340/1
f 121/341/1 120/342/1 122/343/1 88/344/1
f 123/329/1 124/330/1 87/331/1 125/332/1
f 89/317/1 126/318/1 127/319/1 128/320/1
f 129/321/1 90/322/1 130/323/1 131/324/1
f 127/325/1 132/326/1 133/327/1 134/328/1
f 133/345/1 135/346/1 136/347/1 137/348/1
f 136/365/1 138/366/1 139/367/1 140/368/1
f 139/369/1 141/370/1 142/371/1 143/372/1
f 142/373/1 144/374/1 145/375/1 146/376/1
f 145/361/1 147/362/1 148/363/1 149/364/1
f 148/349/1 150/350/1 151/351/1 152/352/1
f 153/537/1 154/538/1 155/539/1 156/540/1
f 157/549/1 153/550/1 158/551/1 159/552/1
f 160/553/1 161/554/1 156/555/1 162/556/1
f 93/585/1 163/586/1 164/587/1 96/588/1
f 165/621/1 166/622/1 167/623/1 100/624/1
f 151/625/1 168/626/1 169/627/1 170/628/1
f 8/273/3 7/274/3 100/275/3 99/276/3
f 11/257/3 5/258/3 102/259/3 103/260/3
f 14/241/3 9/242/3 105/243/3 106/244/3
f 17/237/3 12/238/3 108/239/3 109/240/3
f 20/233/3 15/234/3 111/235/3 112/236/3
f 23/253/3 18/254/3 114/255/3 115/256/3
f 26/249/3 21/250/3 117/251/3 118/252/3
f 28/245/3 24/246/3 120/247/3 121/248/3
f 171/277/3 3/278/3 88/279/3 172/280/3
f 2/281/3 34/282/3 126/283/3 89/284/3
f 33/261/3 40/262/3 132/263/3 127/264/3
f 39/265/3 43/266/3 135/267/3 133/268/3
f 42/269/3 46/270/3 138/271/3 136/272/3
f 45/185/3 49/186/3 141/187/3 139/188/3
f 48/181/3 52/182/3 144/183/3 142/184/3
f 51/189/3 55/190/3 147/191/3 145/192/3
f 54/197/3 58/198/3 150/199/3 148/200/3
f 31/441/3 30/442/3 92/443/3 91/444/3
f 37/445/3 1/446/3 96/447/3 95/448/3
f 62/473/3 61/474/3 124/475/3 123/476/3
f 66/477/3 65/478/3 90/479/3 129/480/3
f 83/509/3 82/510/3 166/511/3 165/512/3
f 57/513/3 86/514/3 168/515/3 151/516/3
f 70/525/3 69/526/3 154/527/3 153/528/3
f 74/569/3 73/570/3 153/571/3 157/572/3
f 78/557/3 77/558/3 161/559/3 160/560/3
f 4/645/3 171/646/3 163/647/3 93/648/3
f 60/649/3 80/650/3 172/651/3 87/652/3
f 102/193/4 101/194/4 6/195/4 5/196/4
f 105/221/4 104/222/4 10/223/4 9/224/4
f 108/217/4 107/218/4 13/219/4 12/220/4
f 111/229/4 110/230/4 16/231/4 15/232/4
f 114/225/4 113/226/4 19/227/4 18/228/4
f 117/205/4 116/206/4 22/207/4 21/208/4
f 120/201/4 119/202/4 25/203/4 24/204/4
f 88/213/4 122/214/4 27/215/4 3/216/4
f 173/209/4 89/210/4 2/211/4 174/212/4
f 128/285/4 127/286/4 33/287/4 32/288/4
f 134/305/4 133/306/4 39/307/4 38/308/4
f 137/309/4 136/310/4 42/311/4 41/312/4
f 140/313/4 139/314/4 45/315/4 44/316/4
f 143/301/4 142/302/4 48/303/4 47/304/4
f 146/289/4 145/290/4 51/291/4 50/292/4
f 149/293/4 148/294/4 54/295/4 53/296/4
f 152/297/4 151/298/4 57/299/4 56/300/4
f 94/469/4 93/470/4 4/471/4 29/472/4
f 98/465/4 97/466/4 36/467/4 35/468/4
f 125/437/4 87/438/4 60/439/4 59/440/4
f 131/457/4 130/458/4 64/459/4 63/460/4
f 100/521/4 167/522/4 81/523/4 7/524/4
f 170/517/4 169/518/4 85/519/4 84/520/4
f 156/529/4 155/530/4 68/531/4 67/532/4
f 159/565/4 158/566/4 72/567/4 71/568/4
f 162/561/4 156/562/4 76/563/4 75/564/4
f 96/637/4 164/638/4 174/639/4 1/640/4
f 90/641/4 173/642/4 79/643/4 65/644/4
f 163/149/5 80/150/5 79/151/5 164/152/5
f 83/57/5 165/58/5 100/59/5 7/60/5
f 8/61/5 99/62/5 102/63/5 5/64/5
f 11/53/5 103/54/5 105/55/5 9/56/5
f 14/45/5 106/46/5 108/47/5 12/48/5
f 17/49/5 109/50/5 111/51/5 15/52/5
f 20/77/5 112/78/5 114/79/5 18/80/5
f 23/81/5 115/82/5 117/83/5 21/84/5
f 26/73/5 118/74/5 120/75/5 24/76/5
f 28/65/5 121/66/5 88/67/5 3/68/5
f 2/69/5 89/70/5 128/71/5 32/72/5
f 33/41/5 127/42/5 134/43/5 38/44/5
f 39/17/5 133/18/5 137/19/5 41/20/5
f 42/13/5 136/14/5 140/15/5 44/16/5
f 45/5/5 139/6/5 143/7/5 47/8/5
f 48/9/5 142/10/5 146/11/5 50/12/5
f 51/21/5 145/22/5 149/23/5 53/24/5
f 54/33/5 148/34/5 152/35/5 56/36/5
f 57/37/5 151/38/5 170/39/5 84/40/5
f 70/157/5 73/158/5 76/159/5 67/160/5
f 74/165/5 157/166/5 159/167/5 71/168/5
f 78/161/5 160/162/5 162/163/5 75/164/5
f 72/177/5 158/178/5 161/179/5 77/180/5
f 4/577/5 93/578/5 96/579/5 1/580/5
f 60/573/5 87/574/5 90/575/5 65/576/5
f 31/597/5 91/598/5 94/599/5 29/600/5
f 37/601/5 95/602/5 98/603/5 35/604/5
f 62/589/5 123/590/5 125/591/5 59/592/5
f 66/593/5 129/594/5 131/595/5 63/596/5
f 88/1/6 3/2/6 2/3/6 89/4/6
f 166/25/6 82/26/6 81/27/6 167/28/6
f 100/29/6 7/30/6 6/31/6 101/32/6
f 102/145/6 5/146/6 10/147/6 104/148/6
f 105/137/6 9/138/6 13/139/6 107/140/6
f 108/141/6 12/142/6 16/143/6 110/144/6
f 111/97/6 15/98/6 19/99/6 113/100/6
f 114/101/6 18/102/6 22/103/6 116/104/6
f 117/105/6 21/106/6 25/107/6 119/108/6
f 120/85/6 24/86/6 27/87/6 122/88/6
f 126/89/6 34/90/6 33/91/6 127/92/6
f 132/93/6 40/94/6 39/95/6 133/96/6
f 135/109/6 43/110/6 42/111/6 136/112/6
f 138/125/6 46/126/6 45/127/6 139/128/6
f 141/129/6 49/130/6 48/131/6 142/132/6
f 144/133/6 52/134/6 51/135/6 145/136/6
f 147/113/6 55/114/6 54/115/6 148/116/6
f 150/117/6 58/118/6 57/119/6 151/120/6
f 168/121/6 86/122/6 85/123/6 169/124/6
f 154/153/6 69/154/6 68/155/6 155/156/6
f 92/613/6 30/614/6 4/615/6 93/616/6
f 96/617/6 1/618/6 36/619/6 97/620/6
f 124/605/6 61/606/6 60/607/6 87/608/6
f 90/609/6 65/610/6 64/611/6 130/612/6
