# MagicaVoxel @ Ephtracy

# group
o road 4

# material
mtllib Road(1)-3-road 4.mtl
usemtl palette

# normals
vn -1 0 0
vn 1 0 0
vn 0 -1 0
vn 0 1 0
vn 0 0 -1
vn 0 0 1

# texcoords
vt 0.369141 0.5
vt 0.384766 0.5
vt 0.474609 0.5
vt 0.498047 0.5

# verts
v 0.6 0 -4.8
v 0.6 0.1 -4.8
v 0.6 0 -2.5
v 0.6 0.1 -2.5
v 0.7 0 -4.9
v 0.7 0.1 -4.9
v 0.7 0 -4.8
v 0.7 0.1 -4.8
v 0.8 0 -5
v 0.8 0.1 -5
v 0.8 0 -4.9
v 0.8 0.1 -4.9
v 0.9 0 -5.1
v 0.9 0.1 -5.1
v 0.9 0 -5
v 0.9 0.1 -5
v 1 0 -5.2
v 1 0.1 -5.2
v 1 0 -5.1
v 1 0.1 -5.1
v 1.1 0 -5.3
v 1.1 0.1 -5.3
v 1.1 0 -5.2
v 1.1 0.1 -5.2
v 1.2 0 -5.4
v 1.2 0.1 -5.4
v 1.2 0 -5.3
v 1.2 0.1 -5.3
v 2 0 -5.4
v 2 0.1 -5.4
v 2 0 -5.3
v 2 0.1 -5.3
v 2.1 0 -5.3
v 2.1 0.1 -5.3
v 2.1 0 -5.2
v 2.1 0.1 -5.2
v 2.2 0 -5.2
v 2.2 0.1 -5.2
v 2.2 0 -5.1
v 2.2 0.1 -5.1
v 2.3 0 -5.1
v 2.3 0.1 -5.1
v 2.3 0 -5
v 2.3 0.1 -5
v 2.4 0 -5
v 2.4 0.1 -5
v 2.4 0 -4.9
v 2.4 0.1 -4.9
v 2.5 0 -4.9
v 2.5 0.1 -4.9
v 2.5 0 -4.8
v 2.5 0.1 -4.8
v 2.6 0 -4.8
v 2.6 0.1 -4.8
v 2.6 0 -2.5
v 2.6 0.1 -2.5
v 0.6 0 -4.8
v 0.6 0 -2.5
v 0.7 0 -4.9
v 0.7 0 -4.8
v 0.8 0 -5
v 0.8 0 -4.9
v 0.9 0 -5.1
v 0.9 0 -5
v 1 0 -5.2
v 1 0 -5.1
v 1 0 -4.8
v 1 0 -2.5
v 1.1 0 -5.3
v 1.1 0 -5.2
v 1.1 0 -4.9
v 1.1 0 -4.8
v 1.1 0 -2.5
v 1.2 0 -5.4
v 1.2 0 -5.3
v 1.2 0 -5
v 1.2 0 -4.9
v 1.2 0 -4.8
v 1.2 0 -2.5
v 2 0 -5.4
v 2 0 -5.3
v 2 0 -5
v 2 0 -4.9
v 2 0 -4.8
v 2 0 -2.5
v 2.1 0 -5.3
v 2.1 0 -5.2
v 2.1 0 -4.9
v 2.1 0 -4.8
v 2.1 0 -2.5
v 2.2 0 -5.2
v 2.2 0 -5.1
v 2.2 0 -4.8
v 2.2 0 -2.5
v 2.3 0 -5.1
v 2.3 0 -5
v 2.4 0 -5
v 2.4 0 -4.9
v 2.5 0 -4.9
v 2.5 0 -4.8
v 2.6 0 -4.8
v 2.6 0 -2.5
v 0.6 0.1 -4.8
v 0.6 0.1 -2.5
v 0.7 0.1 -4.9
v 0.7 0.1 -4.8
v 0.8 0.1 -5
v 0.8 0.1 -4.9
v 0.9 0.1 -5.1
v 0.9 0.1 -5
v 1 0.1 -5.2
v 1 0.1 -5.1
v 1 0.1 -4.8
v 1 0.1 -2.5
v 1.1 0.1 -5.3
v 1.1 0.1 -5.2
v 1.1 0.1 -4.9
v 1.1 0.1 -4.8
v 1.1 0.1 -2.5
v 1.2 0.1 -5.4
v 1.2 0.1 -5.3
v 1.2 0.1 -5
v 1.2 0.1 -4.9
v 1.2 0.1 -4.8
v 1.2 0.1 -2.5
v 2 0.1 -5.4
v 2 0.1 -5.3
v 2 0.1 -5
v 2 0.1 -4.9
v 2 0.1 -4.8
v 2 0.1 -2.5
v 2.1 0.1 -5.3
v 2.1 0.1 -5.2
v 2.1 0.1 -4.9
v 2.1 0.1 -4.8
v 2.1 0.1 -2.5
v 2.2 0.1 -5.2
v 2.2 0.1 -5.1
v 2.2 0.1 -4.8
v 2.2 0.1 -2.5
v 2.3 0.1 -5.1
v 2.3 0.1 -5
v 2.4 0.1 -5
v 2.4 0.1 -4.9
v 2.5 0.1 -4.9
v 2.5 0.1 -4.8
v 2.6 0.1 -4.8
v 2.6 0.1 -2.5
v 1.2 0 -5.4
v 2 0 -5.4
v 1.2 0.1 -5.4
v 2 0.1 -5.4
v 1.1 0 -5.3
v 1.2 0 -5.3
v 2 0 -5.3
v 2.1 0 -5.3
v 1.1 0.1 -5.3
v 1.2 0.1 -5.3
v 2 0.1 -5.3
v 2.1 0.1 -5.3
v 1 0 -5.2
v 1.1 0 -5.2
v 2.1 0 -5.2
v 2.2 0 -5.2
v 1 0.1 -5.2
v 1.1 0.1 -5.2
v 2.1 0.1 -5.2
v 2.2 0.1 -5.2
v 0.9 0 -5.1
v 1 0 -5.1
v 2.2 0 -5.1
v 2.3 0 -5.1
v 0.9 0.1 -5.1
v 1 0.1 -5.1
v 2.2 0.1 -5.1
v 2.3 0.1 -5.1
v 0.8 0 -5
v 0.9 0 -5
v 2.3 0 -5
v 2.4 0 -5
v 0.8 0.1 -5
v 0.9 0.1 -5
v 2.3 0.1 -5
v 2.4 0.1 -5
v 0.7 0 -4.9
v 0.8 0 -4.9
v 2.4 0 -4.9
v 2.5 0 -4.9
v 0.7 0.1 -4.9
v 0.8 0.1 -4.9
v 2.4 0.1 -4.9
v 2.5 0.1 -4.9
v 0.6 0 -4.8
v 0.7 0 -4.8
v 2.5 0 -4.8
v 2.6 0 -4.8
v 0.6 0.1 -4.8
v 0.7 0.1 -4.8
v 2.5 0.1 -4.8
v 2.6 0.1 -4.8
v 0.6 0 -2.5
v 1 0 -2.5
v 1.1 0 -2.5
v 1.2 0 -2.5
v 2 0 -2.5
v 2.1 0 -2.5
v 2.2 0 -2.5
v 2.6 0 -2.5
v 0.6 0.1 -2.5
v 1 0.1 -2.5
v 1.1 0.1 -2.5
v 1.2 0.1 -2.5
v 2 0.1 -2.5
v 2.1 0.1 -2.5
v 2.2 0.1 -2.5
v 2.6 0.1 -2.5

# faces
f 3/4/1 2/4/1 1/4/1
f 4/4/1 2/4/1 3/4/1
f 7/4/1 6/4/1 5/4/1
f 8/4/1 6/4/1 7/4/1
f 11/4/1 10/4/1 9/4/1
f 12/4/1 10/4/1 11/4/1
f 15/4/1 14/4/1 13/4/1
f 16/4/1 14/4/1 15/4/1
f 19/4/1 18/4/1 17/4/1
f 20/4/1 18/4/1 19/4/1
f 23/4/1 22/4/1 21/4/1
f 24/4/1 22/4/1 23/4/1
f 27/4/1 26/4/1 25/4/1
f 28/4/1 26/4/1 27/4/1
f 29/4/2 30/4/2 31/4/2
f 31/4/2 30/4/2 32/4/2
f 33/4/2 34/4/2 35/4/2
f 35/4/2 34/4/2 36/4/2
f 37/4/2 38/4/2 39/4/2
f 39/4/2 38/4/2 40/4/2
f 41/4/2 42/4/2 43/4/2
f 43/4/2 42/4/2 44/4/2
f 45/4/2 46/4/2 47/4/2
f 47/4/2 46/4/2 48/4/2
f 49/4/2 50/4/2 51/4/2
f 51/4/2 50/4/2 52/4/2
f 53/4/2 54/4/2 55/4/2
f 55/4/2 54/4/2 56/4/2
f 60/4/3 58/4/3 57/4/3
f 62/4/3 60/4/3 59/4/3
f 64/4/3 62/4/3 61/4/3
f 66/4/3 64/4/3 63/4/3
f 67/4/3 58/4/3 60/4/3
f 67/4/3 60/4/3 62/4/3
f 67/4/3 64/4/3 66/4/3
f 67/4/3 62/4/3 64/4/3
f 68/4/3 58/4/3 67/4/3
f 70/4/3 66/4/3 65/4/3
f 70/4/3 67/4/3 66/4/3
f 71/4/3 67/4/3 70/4/3
f 72/2/3 68/2/3 67/2/3
f 72/4/3 67/4/3 71/4/3
f 73/2/3 68/2/3 72/2/3
f 75/4/3 71/4/3 70/4/3
f 75/4/3 70/4/3 69/4/3
f 76/4/3 71/4/3 75/4/3
f 77/2/3 72/2/3 71/2/3
f 77/4/3 71/4/3 76/4/3
f 78/3/3 73/3/3 72/3/3
f 78/2/3 72/2/3 77/2/3
f 79/3/3 73/3/3 78/3/3
f 80/4/3 76/4/3 75/4/3
f 80/4/3 75/4/3 74/4/3
f 81/4/3 76/4/3 80/4/3
f 82/2/3 77/2/3 76/2/3
f 82/4/3 76/4/3 81/4/3
f 83/3/3 78/3/3 77/3/3
f 83/2/3 77/2/3 82/2/3
f 84/1/3 79/1/3 78/1/3
f 84/3/3 78/3/3 83/3/3
f 85/1/3 79/1/3 84/1/3
f 86/4/3 83/4/3 82/4/3
f 86/4/3 82/4/3 81/4/3
f 87/4/3 83/4/3 86/4/3
f 88/2/3 84/2/3 83/2/3
f 88/4/3 83/4/3 87/4/3
f 89/3/3 85/3/3 84/3/3
f 89/2/3 84/2/3 88/2/3
f 90/3/3 85/3/3 89/3/3
f 91/4/3 88/4/3 87/4/3
f 91/4/3 89/4/3 88/4/3
f 92/4/3 89/4/3 91/4/3
f 93/2/3 90/2/3 89/2/3
f 93/4/3 89/4/3 92/4/3
f 94/2/3 90/2/3 93/2/3
f 95/4/3 93/4/3 92/4/3
f 95/4/3 94/4/3 93/4/3
f 96/4/3 94/4/3 95/4/3
f 97/4/3 94/4/3 96/4/3
f 98/4/3 94/4/3 97/4/3
f 99/4/3 94/4/3 98/4/3
f 100/4/3 94/4/3 99/4/3
f 101/4/3 94/4/3 100/4/3
f 102/4/3 94/4/3 101/4/3
f 103/4/4 104/4/4 106/4/4
f 105/4/4 106/4/4 108/4/4
f 107/4/4 108/4/4 110/4/4
f 109/4/4 110/4/4 112/4/4
f 106/4/4 104/4/4 113/4/4
f 108/4/4 106/4/4 113/4/4
f 112/4/4 110/4/4 113/4/4
f 110/4/4 108/4/4 113/4/4
f 113/4/4 104/4/4 114/4/4
f 111/4/4 112/4/4 116/4/4
f 112/4/4 113/4/4 116/4/4
f 116/4/4 113/4/4 117/4/4
f 113/2/4 114/2/4 118/2/4
f 117/4/4 113/4/4 118/4/4
f 118/2/4 114/2/4 119/2/4
f 116/4/4 117/4/4 121/4/4
f 115/4/4 116/4/4 121/4/4
f 121/4/4 117/4/4 122/4/4
f 117/2/4 118/2/4 123/2/4
f 122/4/4 117/4/4 123/4/4
f 118/3/4 119/3/4 124/3/4
f 123/2/4 118/2/4 124/2/4
f 124/3/4 119/3/4 125/3/4
f 121/4/4 122/4/4 126/4/4
f 120/4/4 121/4/4 126/4/4
f 126/4/4 122/4/4 127/4/4
f 122/2/4 123/2/4 128/2/4
f 127/4/4 122/4/4 128/4/4
f 123/3/4 124/3/4 129/3/4
f 128/2/4 123/2/4 129/2/4
f 124/1/4 125/1/4 130/1/4
f 129/3/4 124/3/4 130/3/4
f 130/1/4 125/1/4 131/1/4
f 128/4/4 129/4/4 132/4/4
f 127/4/4 128/4/4 132/4/4
f 132/4/4 129/4/4 133/4/4
f 129/2/4 130/2/4 134/2/4
f 133/4/4 129/4/4 134/4/4
f 130/3/4 131/3/4 135/3/4
f 134/2/4 130/2/4 135/2/4
f 135/3/4 131/3/4 136/3/4
f 133/4/4 134/4/4 137/4/4
f 134/4/4 135/4/4 137/4/4
f 137/4/4 135/4/4 138/4/4
f 135/2/4 136/2/4 139/2/4
f 138/4/4 135/4/4 139/4/4
f 139/2/4 136/2/4 140/2/4
f 138/4/4 139/4/4 141/4/4
f 139/4/4 140/4/4 141/4/4
f 141/4/4 140/4/4 142/4/4
f 142/4/4 140/4/4 143/4/4
f 143/4/4 140/4/4 144/4/4
f 144/4/4 140/4/4 145/4/4
f 145/4/4 140/4/4 146/4/4
f 146/4/4 140/4/4 147/4/4
f 147/4/4 140/4/4 148/4/4
f 151/4/5 150/4/5 149/4/5
f 152/4/5 150/4/5 151/4/5
f 157/4/5 154/4/5 153/4/5
f 158/4/5 154/4/5 157/4/5
f 159/4/5 156/4/5 155/4/5
f 160/4/5 156/4/5 159/4/5
f 165/4/5 162/4/5 161/4/5
f 166/4/5 162/4/5 165/4/5
f 167/4/5 164/4/5 163/4/5
f 168/4/5 164/4/5 167/4/5
f 173/4/5 170/4/5 169/4/5
f 174/4/5 170/4/5 173/4/5
f 175/4/5 172/4/5 171/4/5
f 176/4/5 172/4/5 175/4/5
f 181/4/5 178/4/5 177/4/5
f 182/4/5 178/4/5 181/4/5
f 183/4/5 180/4/5 179/4/5
f 184/4/5 180/4/5 183/4/5
f 189/4/5 186/4/5 185/4/5
f 190/4/5 186/4/5 189/4/5
f 191/4/5 188/4/5 187/4/5
f 192/4/5 188/4/5 191/4/5
f 197/4/5 194/4/5 193/4/5
f 198/4/5 194/4/5 197/4/5
f 199/4/5 196/4/5 195/4/5
f 200/4/5 196/4/5 199/4/5
f 201/4/6 202/4/6 209/4/6
f 202/2/6 203/2/6 210/2/6
f 209/4/6 202/4/6 210/4/6
f 203/3/6 204/3/6 211/3/6
f 210/2/6 203/2/6 211/2/6
f 204/1/6 205/1/6 212/1/6
f 211/3/6 204/3/6 212/3/6
f 205/3/6 206/3/6 213/3/6
f 212/1/6 205/1/6 213/1/6
f 206/2/6 207/2/6 214/2/6
f 213/3/6 206/3/6 214/3/6
f 207/4/6 208/4/6 215/4/6
f 214/2/6 207/2/6 215/2/6
f 215/4/6 208/4/6 216/4/6
