# This file was created with Minddesk Qubicle 3.0
# Get Qubicle at www.getqubicle.com

mtllib barrel tnt.mtl

vn 0.0 0.0 1.0
vn 0.0 0.0 -1.0
vn -1.0 0.0 0.0
vn 1.0 0.0 0.0
vn 0.0 1.0 0.0
vn 0.0 -1.0 0.0

v 3.00000 11.00000 -5.00000
v 3.00000 0.00000 -5.00000
v -2.00000 0.00000 -5.00000
v -2.00000 11.00000 -5.00000
v -2.00000 11.00000 -4.00000
v -2.00000 0.00000 -4.00000
v -3.00000 0.00000 -4.00000
v -3.00000 11.00000 -4.00000
v 4.00000 11.00000 -4.00000
v 4.00000 0.00000 -4.00000
v 3.00000 0.00000 -4.00000
v 3.00000 11.00000 -4.00000
v -3.00000 11.00000 -3.00000
v -3.00000 0.00000 -3.00000
v -4.00000 0.00000 -3.00000
v -4.00000 11.00000 -3.00000
v 5.00000 11.00000 -3.00000
v 5.00000 0.00000 -3.00000
v 4.00000 0.00000 -3.00000
v 4.00000 11.00000 -3.00000
v 1.00000 14.00000 -2.00000
v 1.00000 12.00000 -2.00000
v 0.00000 12.00000 -2.00000
v 0.00000 14.00000 -2.00000
v 3.00000 1.00000 3.00000
v 3.00000 0.00000 3.00000
v -2.00000 0.00000 3.00000
v -2.00000 1.00000 3.00000
v 3.00000 11.00000 3.00000
v 3.00000 10.00000 3.00000
v -2.00000 10.00000 3.00000
v -2.00000 11.00000 3.00000
v 2.00000 11.00000 -2.00000
v 2.00000 10.00000 -2.00000
v -1.00000 10.00000 -2.00000
v -1.00000 11.00000 -2.00000
v 1.00000 12.00000 -1.00000
v 1.00000 11.00000 -1.00000
v 0.00000 11.00000 -1.00000
v 0.00000 12.00000 -1.00000
v -2.00000 1.00000 2.00000
v -2.00000 0.00000 2.00000
v -3.00000 0.00000 2.00000
v -3.00000 1.00000 2.00000
v -2.00000 11.00000 2.00000
v -2.00000 10.00000 2.00000
v -3.00000 10.00000 2.00000
v -3.00000 11.00000 2.00000
v 4.00000 1.00000 2.00000
v 4.00000 0.00000 2.00000
v 3.00000 0.00000 2.00000
v 3.00000 1.00000 2.00000
v 4.00000 11.00000 2.00000
v 4.00000 10.00000 2.00000
v 3.00000 10.00000 2.00000
v 3.00000 11.00000 2.00000
v -2.00000 11.00000 4.00000
v -2.00000 0.00000 4.00000
v 3.00000 0.00000 4.00000
v 3.00000 11.00000 4.00000
v -4.00000 11.00000 2.00000
v -4.00000 0.00000 2.00000
v 5.00000 0.00000 2.00000
v 5.00000 11.00000 2.00000
v -3.00000 11.00000 3.00000
v -3.00000 0.00000 3.00000
v 4.00000 0.00000 3.00000
v 4.00000 11.00000 3.00000
v 0.00000 13.00000 0.00000
v 0.00000 11.00000 0.00000
v 1.00000 11.00000 0.00000
v 1.00000 13.00000 0.00000
v -2.00000 1.00000 -4.00000
v 3.00000 1.00000 -4.00000
v -2.00000 10.00000 -4.00000
v 3.00000 10.00000 -4.00000
v -1.00000 11.00000 1.00000
v -1.00000 10.00000 1.00000
v 2.00000 10.00000 1.00000
v 2.00000 11.00000 1.00000
v -3.00000 1.00000 -3.00000
v -2.00000 0.00000 -3.00000
v -2.00000 1.00000 -3.00000
v -3.00000 10.00000 -3.00000
v -2.00000 10.00000 -3.00000
v -2.00000 11.00000 -3.00000
v 3.00000 1.00000 -3.00000
v 3.00000 0.00000 -3.00000
v 4.00000 1.00000 -3.00000
v 3.00000 11.00000 -3.00000
v 3.00000 10.00000 -3.00000
v 4.00000 10.00000 -3.00000
v 0.00000 14.00000 -1.00000
v 0.00000 13.00000 -1.00000
v 1.00000 13.00000 -1.00000
v 1.00000 14.00000 -1.00000
v 0.00000 13.00000 -2.00000
v 0.00000 12.00000 0.00000
v 1.00000 12.00000 0.00000
v 1.00000 13.00000 -2.00000
v -3.00000 10.00000 -2.00000
v -3.00000 10.00000 1.00000
v 4.00000 10.00000 1.00000
v 4.00000 10.00000 -2.00000
v -1.00000 11.00000 -1.00000
v 2.00000 11.00000 -1.00000
v -1.00000 11.00000 0.00000
v 2.00000 11.00000 0.00000

vt 0.01563 0.18750
vt 0.01563 0.01563
vt 0.09375 0.01563
vt 0.09375 0.18750
vt 0.12500 0.18750
vt 0.12500 0.01563
vt 0.20313 0.01563
vt 0.20313 0.18750
vt 0.23438 0.18750
vt 0.23438 0.01563
vt 0.31250 0.01563
vt 0.31250 0.18750
vt 0.34375 0.18750
vt 0.34375 0.01563
vt 0.42188 0.01563
vt 0.42188 0.18750
vt 0.45313 0.18750
vt 0.45313 0.01563
vt 0.46875 0.01563
vt 0.46875 0.18750
vt 0.50000 0.18750
vt 0.50000 0.01563
vt 0.51563 0.01563
vt 0.51563 0.18750
vt 0.54688 0.18750
vt 0.54688 0.01563
vt 0.56250 0.01563
vt 0.56250 0.18750
vt 0.59375 0.18750
vt 0.59375 0.01563
vt 0.60938 0.01563
vt 0.60938 0.18750
vt 0.64063 0.18750
vt 0.64063 0.01563
vt 0.65625 0.01563
vt 0.65625 0.18750
vt 0.68750 0.18750
vt 0.68750 0.01563
vt 0.70313 0.01563
vt 0.70313 0.18750
vt 0.73438 0.18750
vt 0.73438 0.01563
vt 0.75000 0.01563
vt 0.75000 0.18750
vt 0.78125 0.18750
vt 0.78125 0.01563
vt 0.79688 0.01563
vt 0.79688 0.18750
vt 0.82813 0.18750
vt 0.82813 0.01563
vt 0.84375 0.01563
vt 0.84375 0.18750
vt 0.87500 0.18750
vt 0.87500 0.01563
vt 0.89063 0.01563
vt 0.89063 0.18750
vt 0.92188 0.18750
vt 0.92188 0.01563
vt 0.93750 0.01563
vt 0.93750 0.18750
vt 0.96875 0.18750
vt 0.96875 0.01563
vt 0.98438 0.01563
vt 0.98438 0.18750
vt 0.01563 0.39063
vt 0.01563 0.21875
vt 0.03125 0.21875
vt 0.03125 0.39063
vt 0.06250 0.39063
vt 0.06250 0.21875
vt 0.07813 0.21875
vt 0.07813 0.39063
vt 0.10938 0.39063
vt 0.10938 0.21875
vt 0.12500 0.21875
vt 0.12500 0.39063
vt 0.15625 0.39063
vt 0.15625 0.21875
vt 0.17188 0.21875
vt 0.17188 0.39063
vt 0.20313 0.29688
vt 0.20313 0.21875
vt 0.31250 0.21875
vt 0.31250 0.29688
vt 0.34375 0.29688
vt 0.34375 0.21875
vt 0.35938 0.21875
vt 0.35938 0.29688
vt 0.39063 0.29688
vt 0.39063 0.21875
vt 0.40625 0.21875
vt 0.40625 0.29688
vt 0.43750 0.29688
vt 0.43750 0.21875
vt 0.45313 0.21875
vt 0.45313 0.29688
vt 0.48438 0.29688
vt 0.48438 0.21875
vt 0.50000 0.21875
vt 0.50000 0.29688
vt 0.53125 0.26563
vt 0.53125 0.21875
vt 0.56250 0.21875
vt 0.56250 0.26563
vt 0.59375 0.26563
vt 0.59375 0.21875
vt 0.62500 0.21875
vt 0.62500 0.26563
vt 0.65625 0.25000
vt 0.65625 0.21875
vt 0.67188 0.21875
vt 0.67188 0.25000
vt 0.70313 0.25000
vt 0.70313 0.21875
vt 0.71875 0.21875
vt 0.71875 0.25000
vt 0.75000 0.23438
vt 0.75000 0.21875
vt 0.85938 0.21875
vt 0.85938 0.23438
vt 0.20313 0.34375
vt 0.20313 0.32813
vt 0.31250 0.32813
vt 0.31250 0.34375
vt 0.89063 0.23438
vt 0.89063 0.21875
vt 0.96875 0.21875
vt 0.96875 0.23438
vt 0.34375 0.34375
vt 0.34375 0.32813
vt 0.42188 0.32813
vt 0.42188 0.34375
vt 0.45313 0.34375
vt 0.45313 0.32813
vt 0.53125 0.32813
vt 0.53125 0.34375
vt 0.56250 0.34375
vt 0.56250 0.32813
vt 0.64063 0.32813
vt 0.64063 0.34375
vt 0.67188 0.34375
vt 0.67188 0.32813
vt 0.75000 0.32813
vt 0.75000 0.34375
vt 0.78125 0.34375
vt 0.78125 0.32813
vt 0.85938 0.32813
vt 0.85938 0.34375
vt 0.89063 0.34375
vt 0.89063 0.32813
vt 0.96875 0.32813
vt 0.96875 0.34375
vt 0.20313 0.39063
vt 0.20313 0.37500
vt 0.28125 0.37500
vt 0.28125 0.39063
vt 0.31250 0.39063
vt 0.31250 0.37500
vt 0.39063 0.37500
vt 0.39063 0.39063
vt 0.42188 0.39063
vt 0.42188 0.37500
vt 0.50000 0.37500
vt 0.50000 0.39063
vt 0.53125 0.39063
vt 0.53125 0.37500
vt 0.60938 0.37500
vt 0.60938 0.39063
vt 0.64063 0.39063
vt 0.64063 0.37500
vt 0.71875 0.37500
vt 0.71875 0.39063
vt 0.75000 0.39063
vt 0.75000 0.37500
vt 0.82813 0.37500
vt 0.82813 0.39063
vt 0.85938 0.39063
vt 0.85938 0.37500
vt 0.93750 0.37500
vt 0.93750 0.39063
vt 0.01563 0.43750
vt 0.01563 0.42188
vt 0.09375 0.42188
vt 0.09375 0.43750
vt 0.12500 0.43750
vt 0.12500 0.42188
vt 0.20313 0.42188
vt 0.20313 0.43750
vt 0.23438 0.43750
vt 0.23438 0.42188
vt 0.28125 0.42188
vt 0.28125 0.43750
vt 0.31250 0.43750
vt 0.31250 0.42188
vt 0.35938 0.42188
vt 0.35938 0.43750
vt 0.39063 0.43750
vt 0.39063 0.42188
vt 0.43750 0.42188
vt 0.43750 0.43750
vt 0.46875 0.43750
vt 0.46875 0.42188
vt 0.51563 0.42188
vt 0.51563 0.43750
vt 0.54688 0.43750
vt 0.54688 0.42188
vt 0.59375 0.42188
vt 0.59375 0.43750
vt 0.62500 0.43750
vt 0.62500 0.42188
vt 0.67188 0.42188
vt 0.67188 0.43750
vt 0.70313 0.43750
vt 0.70313 0.42188
vt 0.73438 0.42188
vt 0.73438 0.43750
vt 0.76563 0.43750
vt 0.76563 0.42188
vt 0.79688 0.42188
vt 0.79688 0.43750
vt 0.96875 0.39063
vt 0.96875 0.37500
vt 0.98438 0.37500
vt 0.98438 0.39063
vt 0.82813 0.43750
vt 0.82813 0.42188
vt 0.84375 0.42188
vt 0.84375 0.43750
vt 0.87500 0.43750
vt 0.87500 0.42188
vt 0.89063 0.42188
vt 0.89063 0.43750
vt 0.92188 0.43750
vt 0.92188 0.42188
vt 0.93750 0.42188
vt 0.93750 0.43750
vt 0.96875 0.43750
vt 0.96875 0.42188
vt 0.98438 0.42188
vt 0.98438 0.43750
vt 0.01563 0.48438
vt 0.01563 0.46875
vt 0.03125 0.46875
vt 0.03125 0.48438
vt 0.06250 0.48438
vt 0.06250 0.46875
vt 0.07813 0.46875
vt 0.07813 0.48438
vt 0.10938 0.48438
vt 0.10938 0.46875
vt 0.12500 0.46875
vt 0.12500 0.48438
vt 0.15625 0.48438
vt 0.15625 0.46875
vt 0.17188 0.46875
vt 0.17188 0.48438
vt 0.20313 0.48438
vt 0.20313 0.46875
vt 0.21875 0.46875
vt 0.21875 0.48438
vt 0.25000 0.48438
vt 0.25000 0.46875
vt 0.26563 0.46875
vt 0.26563 0.48438
vt 0.29688 0.48438
vt 0.29688 0.46875
vt 0.31250 0.46875
vt 0.31250 0.48438
vt 0.34375 0.48438
vt 0.34375 0.46875
vt 0.35938 0.46875
vt 0.35938 0.48438
vt 0.39063 0.48438
vt 0.39063 0.46875
vt 0.40625 0.46875
vt 0.40625 0.48438
vt 0.43750 0.48438
vt 0.43750 0.46875
vt 0.45313 0.46875
vt 0.45313 0.48438
vt 0.48438 0.48438
vt 0.48438 0.46875
vt 0.50000 0.46875
vt 0.50000 0.48438
vt 0.53125 0.48438
vt 0.53125 0.46875
vt 0.54688 0.46875
vt 0.54688 0.48438
vt 0.57813 0.48438
vt 0.57813 0.46875
vt 0.59375 0.46875
vt 0.59375 0.48438
vt 0.62500 0.48438
vt 0.62500 0.46875
vt 0.64063 0.46875
vt 0.64063 0.48438
vt 0.67188 0.48438
vt 0.67188 0.46875
vt 0.68750 0.46875
vt 0.68750 0.48438
vt 0.71875 0.48438
vt 0.71875 0.46875
vt 0.73438 0.46875
vt 0.73438 0.48438
vt 0.76563 0.48438
vt 0.76563 0.46875
vt 0.78125 0.46875
vt 0.78125 0.48438
vt 0.81250 0.48438
vt 0.81250 0.46875
vt 0.82813 0.46875
vt 0.82813 0.48438
vt 0.85938 0.48438
vt 0.85938 0.46875
vt 0.87500 0.46875
vt 0.87500 0.48438
vt 0.90625 0.48438
vt 0.90625 0.46875
vt 0.92188 0.46875
vt 0.92188 0.48438
vt 0.95313 0.48438
vt 0.95313 0.46875
vt 0.96875 0.46875
vt 0.96875 0.48438
vt 0.01563 0.53125
vt 0.01563 0.51563
vt 0.03125 0.51563
vt 0.03125 0.53125
vt 0.06250 0.53125
vt 0.06250 0.51563
vt 0.07813 0.51563
vt 0.07813 0.53125
vt 0.10938 0.53125
vt 0.10938 0.51563
vt 0.12500 0.51563
vt 0.12500 0.53125
vt 0.15625 0.53125
vt 0.15625 0.51563
vt 0.17188 0.51563
vt 0.17188 0.53125
vt 0.20313 0.53125
vt 0.20313 0.51563
vt 0.21875 0.51563
vt 0.21875 0.53125
vt 0.25000 0.53125
vt 0.25000 0.51563
vt 0.26563 0.51563
vt 0.26563 0.53125
vt 0.29688 0.53125
vt 0.29688 0.51563
vt 0.31250 0.51563
vt 0.31250 0.53125
vt 0.34375 0.53125
vt 0.34375 0.51563
vt 0.35938 0.51563
vt 0.35938 0.53125
vt 0.39063 0.53125
vt 0.39063 0.51563
vt 0.40625 0.51563
vt 0.40625 0.53125

g 
usemtl barrel tnt_Material
f 1/13/2 2/14/2 3/15/2 4/16/2
f 5/69/2 6/70/2 7/71/2 8/72/2
f 9/49/2 10/50/2 11/51/2 12/52/2
f 13/57/2 14/58/2 15/59/2 16/60/2
f 17/61/2 18/62/2 19/63/2 20/64/2
f 21/113/2 22/114/2 23/115/2 24/116/2
f 25/129/2 26/130/2 27/131/2 28/132/2
f 29/157/2 30/158/2 31/159/2 32/160/2
f 33/201/2 34/202/2 35/203/2 36/204/2
f 37/253/2 38/254/2 39/255/2 40/256/2
f 41/249/2 42/250/2 43/251/2 44/252/2
f 45/273/2 46/274/2 47/275/2 48/276/2
f 49/269/2 50/270/2 51/271/2 52/272/2
f 53/265/2 54/266/2 55/267/2 56/268/2
f 57/1/1 58/2/1 59/3/1 60/4/1
f 61/53/1 62/54/1 43/55/1 48/56/1
f 53/73/1 50/74/1 63/75/1 64/76/1
f 65/77/1 66/78/1 27/79/1 32/80/1
f 29/65/1 26/66/1 67/67/1 68/68/1
f 69/109/1 70/110/1 71/111/1 72/112/1
f 73/141/1 6/142/1 11/143/1 74/144/1
f 5/125/1 75/126/1 76/127/1 12/128/1
f 77/189/1 78/190/1 79/191/1 80/192/1
f 81/337/1 14/338/1 82/339/1 83/340/1
f 13/329/1 84/330/1 85/331/1 86/332/1
f 87/321/1 88/322/1 19/323/1 89/324/1
f 90/325/1 91/326/1 92/327/1 20/328/1
f 93/353/1 94/354/1 95/355/1 96/356/1
f 16/5/3 15/6/3 62/7/3 61/8/3
f 4/45/3 3/46/3 6/47/3 5/48/3
f 8/25/3 7/26/3 14/27/3 13/28/3
f 48/21/3 43/22/3 66/23/3 65/24/3
f 32/17/3 27/18/3 58/19/3 57/20/3
f 89/133/3 19/134/3 50/135/3 49/136/3
f 20/137/3 92/138/3 54/139/3 53/140/3
f 36/193/3 35/194/3 78/195/3 77/196/3
f 97/217/3 23/218/3 98/219/3 69/220/3
f 74/317/3 11/318/3 88/319/3 87/320/3
f 12/289/3 76/290/3 91/291/3 90/292/3
f 24/293/3 97/294/3 94/295/3 93/296/3
f 40/285/3 39/286/3 70/287/3 98/288/3
f 52/277/3 51/278/3 26/279/3 25/280/3
f 56/281/3 55/282/3 30/283/3 29/284/3
f 64/9/4 63/10/4 18/11/4 17/12/4
f 12/41/4 11/42/4 2/43/4 1/44/4
f 20/37/4 19/38/4 10/39/4 9/40/4
f 68/33/4 67/34/4 50/35/4 53/36/4
f 60/29/4 59/30/4 26/31/4 29/32/4
f 44/165/4 43/166/4 14/167/4 81/168/4
f 48/169/4 47/170/4 84/171/4 13/172/4
f 80/197/4 79/198/4 34/199/4 33/200/4
f 72/213/4 99/214/4 22/215/4 100/216/4
f 83/357/4 82/358/4 6/359/4 73/360/4
f 86/333/4 85/334/4 75/335/4 5/336/4
f 96/241/4 95/242/4 100/243/4 21/244/4
f 99/233/4 71/234/4 38/235/4 37/236/4
f 28/237/4 27/238/4 42/239/4 41/240/4
f 32/229/4 31/230/4 46/231/4 45/232/4
f 16/85/5 61/86/5 48/87/5 13/88/5
f 20/89/5 53/90/5 64/91/5 17/92/5
f 101/101/5 102/102/5 78/103/5 35/104/5
f 34/105/5 79/106/5 103/107/5 104/108/5
f 4/181/5 5/182/5 12/183/5 1/184/5
f 75/185/5 85/186/5 91/187/5 76/188/5
f 84/121/5 101/122/5 104/123/5 92/124/5
f 102/117/5 47/118/5 54/119/5 103/120/5
f 46/177/5 31/178/5 30/179/5 55/180/5
f 32/173/5 57/174/5 60/175/5 29/176/5
f 36/205/5 105/206/5 106/207/5 33/208/5
f 107/209/5 77/210/5 80/211/5 108/212/5
f 8/301/5 13/302/5 86/303/5 5/304/5
f 12/297/5 90/298/5 20/299/5 9/300/5
f 24/305/5 93/306/5 96/307/5 21/308/5
f 105/313/5 107/314/5 70/315/5 39/316/5
f 94/309/5 69/310/5 72/311/5 95/312/5
f 38/345/5 71/346/5 108/347/5 106/348/5
f 48/341/5 65/342/5 32/343/5 45/344/5
f 56/349/5 29/350/5 68/351/5 53/352/5
f 44/81/6 81/82/6 89/83/6 49/84/6
f 62/93/6 15/94/6 14/95/6 43/96/6
f 50/97/6 19/98/6 18/99/6 63/100/6
f 6/161/6 3/162/6 2/163/6 11/164/6
f 83/145/6 73/146/6 74/147/6 87/148/6
f 28/149/6 41/150/6 52/151/6 25/152/6
f 58/153/6 27/154/6 26/155/6 59/156/6
f 14/257/6 7/258/6 6/259/6 82/260/6
f 88/261/6 11/262/6 10/263/6 19/264/6
f 40/245/6 23/246/6 22/247/6 37/248/6
f 66/225/6 43/226/6 42/227/6 27/228/6
f 26/221/6 51/222/6 50/223/6 67/224/6
