# This file was created with Minddesk Qubicle 3.0
# Get Qubicle at www.getqubicle.com

mtllib broken trunk.mtl

vn 0.0 0.0 1.0
vn 0.0 0.0 -1.0
vn -1.0 0.0 0.0
vn 1.0 0.0 0.0
vn 0.0 1.0 0.0
vn 0.0 -1.0 0.0

v 4.00000 3.00000 1.00000
v 4.00000 0.00000 1.00000
v 1.00000 0.00000 1.00000
v 1.00000 3.00000 1.00000
v 0.00000 3.00000 -8.00000
v 0.00000 1.00000 -8.00000
v -2.00000 1.00000 -8.00000
v -2.00000 3.00000 -8.00000
v -3.00000 2.00000 -5.00000
v -3.00000 0.00000 -5.00000
v -5.00000 0.00000 -5.00000
v -5.00000 2.00000 -5.00000
v -2.00000 3.00000 -9.00000
v -2.00000 1.00000 -9.00000
v -3.00000 1.00000 -9.00000
v -3.00000 3.00000 -9.00000
v 1.00000 3.00000 -9.00000
v 1.00000 1.00000 -9.00000
v 0.00000 1.00000 -9.00000
v 0.00000 3.00000 -9.00000
v -2.00000 4.00000 -5.00000
v -2.00000 2.00000 -5.00000
v -3.00000 4.00000 -5.00000
v -2.00000 4.00000 5.00000
v -2.00000 2.00000 5.00000
v -3.00000 2.00000 5.00000
v -3.00000 4.00000 5.00000
v -2.00000 2.00000 6.00000
v -2.00000 0.00000 6.00000
v -3.00000 0.00000 6.00000
v -3.00000 2.00000 6.00000
v 1.00000 0.00000 -9.00000
v -3.00000 0.00000 -9.00000
v 1.00000 4.00000 -9.00000
v -3.00000 4.00000 -9.00000
v -1.00000 4.00000 -6.00000
v -1.00000 3.00000 -6.00000
v -2.00000 3.00000 -6.00000
v -2.00000 4.00000 -6.00000
v -4.00000 3.00000 -5.00000
v -4.00000 2.00000 -5.00000
v -5.00000 3.00000 -5.00000
v -3.00000 3.00000 -4.00000
v -3.00000 2.00000 -4.00000
v -4.00000 2.00000 -4.00000
v -4.00000 3.00000 -4.00000
v -4.00000 2.00000 -3.00000
v -4.00000 1.00000 -3.00000
v -5.00000 1.00000 -3.00000
v -5.00000 2.00000 -3.00000
v -1.00000 4.00000 0.00000
v -1.00000 3.00000 0.00000
v -2.00000 3.00000 0.00000
v -2.00000 4.00000 0.00000
v 4.00000 2.00000 3.00000
v 4.00000 1.00000 3.00000
v 3.00000 1.00000 3.00000
v 3.00000 2.00000 3.00000
v 1.00000 3.00000 4.00000
v 1.00000 0.00000 4.00000
v 4.00000 0.00000 4.00000
v 4.00000 3.00000 4.00000
v -5.00000 3.00000 -2.00000
v -5.00000 0.00000 -2.00000
v -3.00000 0.00000 -2.00000
v -3.00000 3.00000 -2.00000
v -2.00000 3.00000 8.00000
v -2.00000 1.00000 8.00000
v 0.00000 1.00000 8.00000
v 0.00000 3.00000 8.00000
v -3.00000 3.00000 4.00000
v -3.00000 1.00000 4.00000
v -2.00000 1.00000 4.00000
v -2.00000 3.00000 4.00000
v -3.00000 3.00000 9.00000
v -3.00000 1.00000 9.00000
v -2.00000 1.00000 9.00000
v -2.00000 3.00000 9.00000
v 0.00000 3.00000 9.00000
v 0.00000 1.00000 9.00000
v 1.00000 1.00000 9.00000
v 1.00000 3.00000 9.00000
v -3.00000 0.00000 9.00000
v 1.00000 0.00000 9.00000
v -3.00000 4.00000 9.00000
v 1.00000 4.00000 9.00000
v -2.00000 4.00000 -8.00000
v -1.00000 3.00000 -8.00000
v -1.00000 4.00000 -8.00000
v -3.00000 4.00000 -7.00000
v -3.00000 3.00000 -7.00000
v -2.00000 3.00000 -7.00000
v -2.00000 4.00000 -7.00000
v -3.00000 3.00000 -6.00000
v -3.00000 2.00000 -6.00000
v -2.00000 2.00000 -6.00000
v -5.00000 2.00000 -4.00000
v -5.00000 1.00000 -4.00000
v -4.00000 1.00000 -4.00000
v -2.00000 4.00000 -3.00000
v -2.00000 3.00000 -3.00000
v -1.00000 3.00000 -3.00000
v -1.00000 4.00000 -3.00000
v -3.00000 4.00000 0.00000
v -3.00000 3.00000 0.00000
v 3.00000 2.00000 2.00000
v 3.00000 1.00000 2.00000
v 4.00000 1.00000 2.00000
v 4.00000 2.00000 2.00000
v -3.00000 1.00000 5.00000
v -3.00000 0.00000 5.00000
v -2.00000 0.00000 5.00000
v -2.00000 1.00000 5.00000
v -3.00000 1.00000 -2.00000
v -3.00000 2.00000 -9.00000
v -3.00000 2.00000 9.00000
v -3.00000 3.00000 -5.00000
v -2.00000 3.00000 5.00000
v -5.00000 1.00000 -5.00000
v -5.00000 1.00000 -2.00000
v -5.00000 2.00000 -2.00000
v -2.00000 2.00000 4.00000
v -2.00000 1.00000 6.00000
v 4.00000 1.00000 4.00000
v 4.00000 1.00000 1.00000
v 4.00000 2.00000 4.00000
v 4.00000 2.00000 1.00000
v 1.00000 4.00000 5.00000
v 1.00000 4.00000 0.00000
v 1.00000 4.00000 -3.00000
v -3.00000 4.00000 -3.00000
v 1.00000 4.00000 -5.00000
v 1.00000 4.00000 -6.00000
v 1.00000 4.00000 -8.00000
v -5.00000 3.00000 -4.00000
v -3.00000 4.00000 -8.00000
v -1.00000 3.00000 -7.00000
v 1.00000 0.00000 -5.00000
v 1.00000 0.00000 -2.00000
v -3.00000 0.00000 4.00000
v -3.00000 0.00000 1.00000
v 1.00000 0.00000 6.00000
v 1.00000 0.00000 5.00000

vt 0.01563 0.18750
vt 0.01563 0.03125
vt 0.06250 0.03125
vt 0.06250 0.18750
vt 0.09375 0.15625
vt 0.09375 0.03125
vt 0.15625 0.03125
vt 0.15625 0.15625
vt 0.18750 0.15625
vt 0.18750 0.03125
vt 0.25000 0.03125
vt 0.25000 0.15625
vt 0.28125 0.15625
vt 0.28125 0.03125
vt 0.29688 0.03125
vt 0.29688 0.15625
vt 0.32813 0.12500
vt 0.32813 0.03125
vt 0.48438 0.03125
vt 0.48438 0.12500
vt 0.51563 0.12500
vt 0.51563 0.03125
vt 0.62500 0.03125
vt 0.62500 0.12500
vt 0.65625 0.12500
vt 0.65625 0.03125
vt 0.75000 0.03125
vt 0.75000 0.12500
vt 0.78125 0.12500
vt 0.78125 0.03125
vt 0.85938 0.03125
vt 0.85938 0.12500
vt 0.89063 0.12500
vt 0.89063 0.03125
vt 0.95313 0.03125
vt 0.95313 0.12500
vt 0.01563 0.34375
vt 0.01563 0.25000
vt 0.07813 0.25000
vt 0.07813 0.34375
vt 0.10938 0.34375
vt 0.10938 0.25000
vt 0.15625 0.25000
vt 0.15625 0.34375
vt 0.18750 0.34375
vt 0.18750 0.25000
vt 0.23438 0.25000
vt 0.23438 0.34375
vt 0.26563 0.34375
vt 0.26563 0.25000
vt 0.31250 0.25000
vt 0.31250 0.34375
vt 0.34375 0.34375
vt 0.34375 0.25000
vt 0.37500 0.25000
vt 0.37500 0.34375
vt 0.40625 0.34375
vt 0.40625 0.25000
vt 0.43750 0.25000
vt 0.43750 0.34375
vt 0.46875 0.34375
vt 0.46875 0.25000
vt 0.48438 0.25000
vt 0.48438 0.34375
vt 0.51563 0.34375
vt 0.51563 0.25000
vt 0.53125 0.25000
vt 0.53125 0.34375
vt 0.56250 0.31250
vt 0.56250 0.25000
vt 0.65625 0.25000
vt 0.65625 0.31250
vt 0.68750 0.31250
vt 0.68750 0.25000
vt 0.75000 0.25000
vt 0.75000 0.31250
vt 0.78125 0.31250
vt 0.78125 0.25000
vt 0.84375 0.25000
vt 0.84375 0.31250
vt 0.87500 0.31250
vt 0.87500 0.25000
vt 0.93750 0.25000
vt 0.93750 0.31250
vt 0.01563 0.46875
vt 0.01563 0.40625
vt 0.06250 0.40625
vt 0.06250 0.46875
vt 0.09375 0.46875
vt 0.09375 0.40625
vt 0.12500 0.40625
vt 0.12500 0.46875
vt 0.15625 0.46875
vt 0.15625 0.40625
vt 0.18750 0.40625
vt 0.18750 0.46875
vt 0.21875 0.46875
vt 0.21875 0.40625
vt 0.25000 0.40625
vt 0.25000 0.46875
vt 0.28125 0.46875
vt 0.28125 0.40625
vt 0.31250 0.40625
vt 0.31250 0.46875
vt 0.34375 0.46875
vt 0.34375 0.40625
vt 0.37500 0.40625
vt 0.37500 0.46875
vt 0.96875 0.31250
vt 0.96875 0.25000
vt 0.98438 0.25000
vt 0.98438 0.31250
vt 0.40625 0.46875
vt 0.40625 0.40625
vt 0.42188 0.40625
vt 0.42188 0.46875
vt 0.45313 0.46875
vt 0.45313 0.40625
vt 0.46875 0.40625
vt 0.46875 0.46875
vt 0.50000 0.46875
vt 0.50000 0.40625
vt 0.51563 0.40625
vt 0.51563 0.46875
vt 0.54688 0.46875
vt 0.54688 0.40625
vt 0.56250 0.40625
vt 0.56250 0.46875
vt 0.59375 0.46875
vt 0.59375 0.40625
vt 0.60938 0.40625
vt 0.60938 0.46875
vt 0.64063 0.46875
vt 0.64063 0.40625
vt 0.65625 0.40625
vt 0.65625 0.46875
vt 0.68750 0.46875
vt 0.68750 0.40625
vt 0.70313 0.40625
vt 0.70313 0.46875
vt 0.73438 0.46875
vt 0.73438 0.40625
vt 0.75000 0.40625
vt 0.75000 0.46875
vt 0.78125 0.46875
vt 0.78125 0.40625
vt 0.79688 0.40625
vt 0.79688 0.46875
vt 0.82813 0.46875
vt 0.82813 0.40625
vt 0.84375 0.40625
vt 0.84375 0.46875
vt 0.87500 0.46875
vt 0.87500 0.40625
vt 0.89063 0.40625
vt 0.89063 0.46875
vt 0.92188 0.46875
vt 0.92188 0.40625
vt 0.93750 0.40625
vt 0.93750 0.46875
vt 0.01563 0.56250
vt 0.01563 0.53125
vt 0.29688 0.53125
vt 0.29688 0.56250
vt 0.32813 0.56250
vt 0.32813 0.53125
vt 0.43750 0.53125
vt 0.43750 0.56250
vt 0.46875 0.56250
vt 0.46875 0.53125
vt 0.54688 0.53125
vt 0.54688 0.56250
vt 0.57813 0.56250
vt 0.57813 0.53125
vt 0.65625 0.53125
vt 0.65625 0.56250
vt 0.68750 0.56250
vt 0.68750 0.53125
vt 0.75000 0.53125
vt 0.75000 0.56250
vt 0.78125 0.56250
vt 0.78125 0.53125
vt 0.84375 0.53125
vt 0.84375 0.56250
vt 0.87500 0.56250
vt 0.87500 0.53125
vt 0.93750 0.53125
vt 0.93750 0.56250
vt 0.01563 0.65625
vt 0.01563 0.62500
vt 0.07813 0.62500
vt 0.07813 0.65625
vt 0.10938 0.65625
vt 0.10938 0.62500
vt 0.17188 0.62500
vt 0.17188 0.65625
vt 0.20313 0.65625
vt 0.20313 0.62500
vt 0.26563 0.62500
vt 0.26563 0.65625
vt 0.29688 0.65625
vt 0.29688 0.62500
vt 0.34375 0.62500
vt 0.34375 0.65625
vt 0.37500 0.65625
vt 0.37500 0.62500
vt 0.42188 0.62500
vt 0.42188 0.65625
vt 0.45313 0.65625
vt 0.45313 0.62500
vt 0.50000 0.62500
vt 0.50000 0.65625
vt 0.53125 0.65625
vt 0.53125 0.62500
vt 0.57813 0.62500
vt 0.57813 0.65625
vt 0.60938 0.65625
vt 0.60938 0.62500
vt 0.65625 0.62500
vt 0.65625 0.65625
vt 0.68750 0.65625
vt 0.68750 0.62500
vt 0.73438 0.62500
vt 0.73438 0.65625
vt 0.76563 0.65625
vt 0.76563 0.62500
vt 0.81250 0.62500
vt 0.81250 0.65625
vt 0.84375 0.65625
vt 0.84375 0.62500
vt 0.89063 0.62500
vt 0.89063 0.65625
vt 0.92188 0.65625
vt 0.92188 0.62500
vt 0.96875 0.62500
vt 0.96875 0.65625
vt 0.01563 0.75000
vt 0.01563 0.71875
vt 0.04688 0.71875
vt 0.04688 0.75000
vt 0.07813 0.75000
vt 0.07813 0.71875
vt 0.10938 0.71875
vt 0.10938 0.75000
vt 0.14063 0.75000
vt 0.14063 0.71875
vt 0.17188 0.71875
vt 0.17188 0.75000
vt 0.20313 0.75000
vt 0.20313 0.71875
vt 0.23438 0.71875
vt 0.23438 0.75000
vt 0.26563 0.75000
vt 0.26563 0.71875
vt 0.29688 0.71875
vt 0.29688 0.75000
vt 0.32813 0.75000
vt 0.32813 0.71875
vt 0.35938 0.71875
vt 0.35938 0.75000
vt 0.39063 0.75000
vt 0.39063 0.71875
vt 0.42188 0.71875
vt 0.42188 0.75000
vt 0.45313 0.75000
vt 0.45313 0.71875
vt 0.48438 0.71875
vt 0.48438 0.75000
vt 0.96875 0.43750
vt 0.96875 0.40625
vt 0.98438 0.40625
vt 0.98438 0.43750
vt 0.96875 0.56250
vt 0.96875 0.53125
vt 0.98438 0.53125
vt 0.98438 0.56250
vt 0.51563 0.75000
vt 0.51563 0.71875
vt 0.53125 0.71875
vt 0.53125 0.75000
vt 0.56250 0.75000
vt 0.56250 0.71875
vt 0.57813 0.71875
vt 0.57813 0.75000
vt 0.60938 0.75000
vt 0.60938 0.71875
vt 0.62500 0.71875
vt 0.62500 0.75000
vt 0.65625 0.75000
vt 0.65625 0.71875
vt 0.67188 0.71875
vt 0.67188 0.75000
vt 0.70313 0.75000
vt 0.70313 0.71875
vt 0.71875 0.71875
vt 0.71875 0.75000
vt 0.75000 0.75000
vt 0.75000 0.71875
vt 0.76563 0.71875
vt 0.76563 0.75000
vt 0.79688 0.75000
vt 0.79688 0.71875
vt 0.81250 0.71875
vt 0.81250 0.75000
vt 0.84375 0.75000
vt 0.84375 0.71875
vt 0.85938 0.71875
vt 0.85938 0.75000
vt 0.89063 0.75000
vt 0.89063 0.71875
vt 0.90625 0.71875
vt 0.90625 0.75000
vt 0.93750 0.75000
vt 0.93750 0.71875
vt 0.95313 0.71875
vt 0.95313 0.75000
vt 0.01563 0.84375
vt 0.01563 0.81250
vt 0.03125 0.81250
vt 0.03125 0.84375
vt 0.06250 0.84375
vt 0.06250 0.81250
vt 0.07813 0.81250
vt 0.07813 0.84375
vt 0.10938 0.84375
vt 0.10938 0.81250
vt 0.12500 0.81250
vt 0.12500 0.84375
vt 0.15625 0.84375
vt 0.15625 0.81250
vt 0.17188 0.81250
vt 0.17188 0.84375
vt 0.20313 0.84375
vt 0.20313 0.81250
vt 0.21875 0.81250
vt 0.21875 0.84375
vt 0.25000 0.84375
vt 0.25000 0.81250
vt 0.26563 0.81250
vt 0.26563 0.84375
vt 0.29688 0.84375
vt 0.29688 0.81250
vt 0.31250 0.81250
vt 0.31250 0.84375
vt 0.34375 0.84375
vt 0.34375 0.81250
vt 0.35938 0.81250
vt 0.35938 0.84375
vt 0.39063 0.84375
vt 0.39063 0.81250
vt 0.40625 0.81250
vt 0.40625 0.84375
vt 0.43750 0.84375
vt 0.43750 0.81250
vt 0.45313 0.81250
vt 0.45313 0.84375
vt 0.48438 0.84375
vt 0.48438 0.81250
vt 0.50000 0.81250
vt 0.50000 0.84375
vt 0.53125 0.84375
vt 0.53125 0.81250
vt 0.54688 0.81250
vt 0.54688 0.84375
vt 0.57813 0.84375
vt 0.57813 0.81250
vt 0.59375 0.81250
vt 0.59375 0.84375
vt 0.62500 0.84375
vt 0.62500 0.81250
vt 0.64063 0.81250
vt 0.64063 0.84375
vt 0.67188 0.84375
vt 0.67188 0.81250
vt 0.68750 0.81250
vt 0.68750 0.84375
vt 0.71875 0.84375
vt 0.71875 0.81250
vt 0.73438 0.81250
vt 0.73438 0.84375
vt 0.76563 0.84375
vt 0.76563 0.81250
vt 0.78125 0.81250
vt 0.78125 0.84375
vt 0.81250 0.84375
vt 0.81250 0.81250
vt 0.82813 0.81250
vt 0.82813 0.84375
vt 0.85938 0.84375
vt 0.85938 0.81250
vt 0.87500 0.81250
vt 0.87500 0.84375
vt 0.90625 0.84375
vt 0.90625 0.81250
vt 0.92188 0.81250
vt 0.92188 0.84375
vt 0.95313 0.84375
vt 0.95313 0.81250
vt 0.96875 0.81250
vt 0.96875 0.84375
vt 0.01563 0.93750
vt 0.01563 0.90625
vt 0.03125 0.90625
vt 0.03125 0.93750
vt 0.06250 0.93750
vt 0.06250 0.90625
vt 0.07813 0.90625
vt 0.07813 0.93750
vt 0.10938 0.93750
vt 0.10938 0.90625
vt 0.12500 0.90625
vt 0.12500 0.93750

g 
usemtl broken trunk_Material
f 1/49/2 2/50/2 3/51/2 4/52/2
f 5/105/2 6/106/2 7/107/2 8/108/2
f 9/101/2 10/102/2 11/103/2 12/104/2
f 13/125/2 14/126/2 15/127/2 16/128/2
f 17/121/2 18/122/2 19/123/2 20/124/2
f 21/117/2 22/118/2 9/119/2 23/120/2
f 24/149/2 25/150/2 26/151/2 27/152/2
f 28/153/2 29/154/2 30/155/2 31/156/2
f 18/177/2 32/178/2 33/179/2 15/180/2
f 34/181/2 17/182/2 16/183/2 35/184/2
f 36/289/2 37/290/2 38/291/2 39/292/2
f 40/285/2 41/286/2 12/287/2 42/288/2
f 43/281/2 44/282/2 45/283/2 46/284/2
f 47/301/2 48/302/2 49/303/2 50/304/2
f 51/297/2 52/298/2 53/299/2 54/300/2
f 55/293/2 56/294/2 57/295/2 58/296/2
f 59/45/1 60/46/1 61/47/1 62/48/1
f 63/57/1 64/58/1 65/59/1 66/60/1
f 67/97/1 68/98/1 69/99/1 70/100/1
f 71/157/1 72/158/1 73/159/1 74/160/1
f 75/145/1 76/146/1 77/147/1 78/148/1
f 79/137/1 80/138/1 81/139/1 82/140/1
f 76/197/1 83/198/1 84/199/1 81/200/1
f 85/193/1 75/194/1 82/195/1 86/196/1
f 87/277/1 8/278/1 88/279/1 89/280/1
f 90/273/1 91/274/1 92/275/1 93/276/1
f 94/269/1 95/270/1 96/271/1 38/272/1
f 97/373/1 98/374/1 99/375/1 45/376/1
f 100/377/1 101/378/1 102/379/1 103/380/1
f 104/381/1 105/382/1 53/383/1 54/384/1
f 106/361/1 107/362/1 108/363/1 109/364/1
f 110/365/1 111/366/1 112/367/1 113/368/1
f 66/69/3 114/70/3 72/71/3 71/72/3
f 115/81/3 33/82/3 10/83/3 9/84/3
f 27/73/3 26/74/3 116/75/3 85/76/3
f 31/85/3 30/86/3 83/87/3 116/88/3
f 20/109/3 19/110/3 6/111/3 5/112/3
f 39/133/3 96/134/3 22/135/3 21/136/3
f 70/141/3 69/142/3 80/143/3 79/144/3
f 23/169/3 117/170/3 105/171/3 104/172/3
f 114/165/3 65/166/3 111/167/3 110/168/3
f 54/173/3 53/174/3 118/175/3 24/176/3
f 16/209/3 115/210/3 95/211/3 94/212/3
f 119/213/3 11/214/3 64/215/3 120/216/3
f 42/201/3 12/202/3 121/203/3 63/204/3
f 103/205/3 102/206/3 52/207/3 51/208/3
f 35/257/3 16/258/3 91/259/3 90/260/3
f 89/249/3 88/250/3 37/251/3 36/252/3
f 122/253/3 73/254/3 123/255/3 28/256/3
f 12/369/3 119/370/3 98/371/3 97/372/3
f 117/385/3 9/386/3 44/387/3 43/388/3
f 45/401/3 99/402/3 48/403/3 47/404/3
f 50/405/3 49/406/3 120/407/3 121/408/3
f 74/409/3 122/410/3 25/411/3 118/412/3
f 113/389/3 112/390/3 29/391/3 123/392/3
f 4/17/4 3/18/4 32/19/4 17/20/4
f 82/29/4 84/30/4 60/31/4 59/32/4
f 8/129/4 7/130/4 14/131/4 13/132/4
f 78/113/4 77/114/4 68/115/4 67/116/4
f 86/161/4 82/162/4 17/163/4 34/164/4
f 54/233/4 53/234/4 101/235/4 100/236/4
f 124/221/4 61/222/4 2/223/4 125/224/4
f 62/217/4 126/218/4 127/219/4 1/220/4
f 93/393/4 92/394/4 8/395/4 87/396/4
f 46/397/4 45/398/4 41/399/4 40/400/4
f 109/357/4 108/358/4 125/359/4 127/360/4
f 58/317/4 57/318/4 107/319/4 106/320/4
f 126/321/4 124/322/4 56/323/4 55/324/4
f 54/1/5 24/2/5 128/3/5 129/4/5
f 4/41/5 59/42/5 62/43/5 1/44/5
f 27/5/5 85/6/5 86/7/5 128/8/5
f 103/53/5 51/54/5 129/55/5 130/56/5
f 131/65/5 104/66/5 54/67/5 100/68/5
f 101/61/5 53/62/5 52/63/5 102/64/5
f 105/13/5 71/14/5 74/15/5 53/16/5
f 23/77/5 131/78/5 130/79/5 132/80/5
f 89/93/5 36/94/5 133/95/5 134/96/5
f 135/89/5 63/90/5 66/91/5 43/92/5
f 35/185/5 136/186/5 134/187/5 34/188/5
f 39/229/5 21/230/5 132/231/5 133/232/5
f 14/245/5 7/246/5 6/247/5 19/248/5
f 91/241/5 94/242/5 37/243/5 137/244/5
f 68/237/5 77/238/5 80/239/5 69/240/5
f 136/325/5 90/326/5 93/327/5 87/328/5
f 8/305/5 92/306/5 137/307/5 88/308/5
f 95/309/5 9/310/5 22/311/5 96/312/5
f 42/313/5 135/314/5 46/315/5 40/316/5
f 41/329/5 45/330/5 44/331/5 9/332/5
f 98/345/5 49/346/5 48/347/5 99/348/5
f 107/349/5 57/350/5 56/351/5 108/352/5
f 72/353/5 110/354/5 113/355/5 73/356/5
f 64/25/6 11/26/6 138/27/6 139/28/6
f 140/21/6 141/22/6 2/23/6 61/24/6
f 10/9/6 33/10/6 32/11/6 138/12/6
f 141/33/6 65/34/6 139/35/6 3/36/6
f 83/37/6 30/38/6 142/39/6 84/40/6
f 111/189/6 140/190/6 60/191/6 143/192/6
f 29/225/6 112/226/6 143/227/6 142/228/6
f 8/261/6 13/262/6 20/263/6 5/264/6
f 78/265/6 67/266/6 70/267/6 79/268/6
f 50/333/6 97/334/6 45/335/6 47/336/6
f 58/337/6 106/338/6 109/339/6 55/340/6
f 31/341/6 26/342/6 25/343/6 28/344/6
